<svg width="114" height="30" viewBox="0 0 114 30" fill="none" xmlns="http://www.w3.org/2000/svg">
<path d="M31.2684 22.4288V29.5846H23.3394C19.246 29.5846 17.1235 27.7199 16.987 23.9903V20.8672C16.9264 19.2905 17.5783 17.7745 18.7457 16.7132C19.8827 15.7581 21.4443 15.2729 23.4606 15.2729H29.343V18.3354H23.5516C22.8391 18.2899 22.1417 18.5022 21.5959 18.957C21.1107 19.4876 20.8682 20.185 20.8985 20.8976C20.8682 21.2766 20.853 21.7769 20.853 22.4136C20.853 23.0352 20.853 23.5507 20.8985 23.9449C20.853 24.6574 21.0956 25.3548 21.5504 25.9006C22.081 26.3554 22.7633 26.5677 23.4455 26.507H27.4024V22.4288H31.2684Z" fill="white"/>
<path d="M14.8041 22.4288V23.9752C14.6676 27.7047 12.5451 29.5695 8.45174 29.5695H2.47843V26.507H8.33045C9.01268 26.5677 9.69491 26.3403 10.2255 25.9006C10.6804 25.3548 10.9229 24.6726 10.8774 23.96C10.9078 23.5659 10.9229 23.0504 10.9229 22.4288C10.9229 21.8072 10.9229 21.2918 10.8774 20.9127C10.9078 20.2002 10.65 19.5028 10.1649 18.9722C9.61911 18.5174 8.92172 18.2899 8.20917 18.3506H4.35836V22.444H0.522705V15.2578H8.33045C10.3468 15.2578 11.9084 15.743 13.0151 16.6981C14.137 17.6532 14.7131 19.0328 14.7737 20.8369C14.8041 21.2463 14.8041 21.7921 14.8041 22.4288Z" fill="white"/>
<path d="M37.2565 26.9014C37.1958 26.8407 37.1655 26.7649 37.1655 26.6739V18.184C37.1655 18.093 37.1958 18.0172 37.2565 17.9414C37.3171 17.8808 37.3929 17.8504 37.4687 17.8504H40.9102C41.9866 17.7746 43.063 18.1082 43.9272 18.7752C44.6852 19.4423 45.1097 20.4126 45.0794 21.4284V23.4296C44.9884 25.8249 43.6391 27.0075 41.0163 27.0075H37.4839C37.3778 26.9923 37.302 26.962 37.2565 26.9014ZM40.9254 25.0518C41.365 25.0821 41.8047 24.9456 42.1382 24.6576C42.4263 24.3089 42.5779 23.8692 42.5627 23.4144C42.5627 23.1567 42.593 22.8383 42.593 22.429C42.593 22.0196 42.593 21.7012 42.5627 21.4587C42.5779 21.0039 42.4263 20.549 42.1079 20.2155C41.7592 19.9274 41.3044 19.791 40.8647 19.8213H39.6367V25.0518H40.9254Z" fill="white"/>
<path d="M47.2321 26.901C47.1714 26.8404 47.1411 26.7646 47.1411 26.6736V18.1836C47.1411 18.0927 47.1714 18.0017 47.2321 17.9411C47.2927 17.8804 47.3837 17.8349 47.4595 17.8501H53.6147C53.7967 17.8501 53.9483 17.9866 53.9483 18.1685C53.9483 18.1685 53.9483 18.1685 53.9483 18.1836V19.4875C53.9483 19.5784 53.9179 19.6542 53.8573 19.7149C53.7966 19.7755 53.7057 19.8058 53.6147 19.8058H49.4759V21.4735H53.3267C53.5086 21.4735 53.6602 21.61 53.6602 21.7919C53.6602 21.7919 53.6602 21.7919 53.6602 21.807V22.9896C53.6602 23.0805 53.6299 23.1715 53.5692 23.2321C53.5086 23.2928 53.4176 23.3383 53.3267 23.3231H49.4759V25.0514H53.7057C53.8876 25.0514 54.0392 25.203 54.0544 25.385C54.0544 25.385 54.0544 25.385 54.0544 25.4001V26.6888C54.0544 26.7797 54.0241 26.8555 53.9634 26.9162C53.9028 26.9768 53.8118 27.0072 53.7208 27.0072H47.4443C47.3685 27.0072 47.2927 26.9617 47.2321 26.901Z" fill="white"/>
<path d="M56.2223 26.901C56.1617 26.8404 56.1313 26.7646 56.1313 26.6736V18.1836C56.1313 18.0927 56.1617 18.0017 56.2223 17.9411C56.283 17.8804 56.3739 17.8349 56.4497 17.8501H62.6201C62.7111 17.8501 62.802 17.8804 62.8627 17.9411C62.9233 18.0017 62.9688 18.0927 62.9537 18.1836V19.4875C62.9537 19.5784 62.9233 19.6542 62.8627 19.7149C62.802 19.7755 62.7111 19.8058 62.6201 19.8058H58.4964V21.4735H62.3321C62.423 21.4735 62.514 21.5038 62.5746 21.5645C62.6353 21.6251 62.6808 21.7161 62.6656 21.807V22.9896C62.6656 23.1715 62.514 23.3231 62.3321 23.3383C62.3321 23.3383 62.3321 23.3383 62.3169 23.3383H58.4813V25.0514H62.7111C62.802 25.0514 62.893 25.0818 62.9537 25.1424C63.0143 25.203 63.0598 25.294 63.0446 25.385V26.6736C63.0446 26.7646 63.0143 26.8404 62.9537 26.901C62.893 26.9617 62.802 26.992 62.7111 26.992H56.4649C56.3739 27.0072 56.283 26.9768 56.2223 26.901Z" fill="white"/>
<path d="M65.2128 26.901C65.1521 26.8404 65.1218 26.7646 65.1218 26.6736V18.1836C65.1218 18.0927 65.1521 18.0169 65.2128 17.9411C65.2734 17.8804 65.3644 17.8349 65.4554 17.8501H69.1546C70.1097 17.7895 71.0496 18.0624 71.8228 18.6233C72.4899 19.1842 72.8386 20.0181 72.778 20.8822C72.8386 21.7464 72.4748 22.5802 71.8077 23.1109C71.0193 23.6415 70.0794 23.8992 69.1394 23.8537H67.6385V26.6888C67.6385 26.7797 67.6082 26.8555 67.5475 26.9162C67.4869 26.9768 67.3959 27.0223 67.305 27.0072H65.425C65.3492 27.0072 65.2734 26.9617 65.2128 26.901ZM69.0788 21.989C69.382 22.0041 69.6852 21.898 69.9278 21.7009C70.14 21.4735 70.2613 21.1854 70.231 20.8671C70.2461 20.5639 70.14 20.2758 69.9429 20.0484C69.7155 19.821 69.3971 19.7149 69.0788 19.7452H67.6082V21.989H69.0788Z" fill="white"/>
<path d="M75.5829 26.2036C74.84 25.5365 74.4155 24.5662 74.4459 23.5656V21.1702C74.4307 20.1848 74.8552 19.2448 75.5981 18.6081C76.4471 17.9713 77.4932 17.6378 78.5544 17.6984C79.2973 17.6833 80.0401 17.8197 80.7224 18.1078C81.2833 18.3352 81.7685 18.6839 82.1475 19.1539C82.4507 19.5177 82.6326 19.9725 82.6629 20.4577C82.6629 20.5335 82.6326 20.6093 82.572 20.6699C82.5265 20.7306 82.4507 20.7457 82.3749 20.7457H80.3737C80.2979 20.7457 80.2372 20.7306 80.1766 20.7003C80.116 20.6699 80.0705 20.6245 80.0401 20.5638C79.934 20.3061 79.7521 20.0938 79.5398 19.9271C79.2518 19.7451 78.9031 19.6542 78.5696 19.6693C77.5538 19.6693 77.0383 20.2151 76.9929 21.246V23.505C77.0383 24.6117 77.569 25.1727 78.5847 25.1727C79.0244 25.203 79.4489 25.0665 79.7976 24.7936C80.116 24.4904 80.2676 24.0659 80.2372 23.6414V23.4292H79.0699C78.9789 23.4292 78.8879 23.3989 78.8273 23.3382C78.7667 23.2776 78.7212 23.1866 78.7363 23.0956V22.0647C78.7363 21.9738 78.7667 21.8828 78.8273 21.8221C78.8879 21.7615 78.9789 21.716 79.0699 21.7312H82.3901C82.481 21.7312 82.572 21.7615 82.6326 21.8221C82.6933 21.8828 82.7388 21.9738 82.7236 22.0647V23.5808C82.7388 24.263 82.5417 24.9301 82.1778 25.491C81.8291 26.0368 81.3136 26.4613 80.7224 26.719C80.0401 27.0071 79.2973 27.1587 78.5544 27.1435C77.4932 27.2042 76.4319 26.8707 75.5829 26.2036Z" fill="white"/>
<path d="M84.8766 26.901C84.816 26.8404 84.7856 26.7646 84.7856 26.6736V18.1836C84.7856 18.0927 84.816 18.0169 84.8766 17.9411C84.9373 17.8804 85.0282 17.8349 85.104 17.8501H88.6971C89.6674 17.7894 90.6225 18.0623 91.4109 18.6384C92.0628 19.1842 92.4266 20.0029 92.3811 20.8519C92.3963 21.3977 92.2447 21.9435 91.9566 22.4135C91.6686 22.8531 91.2593 23.217 90.7741 23.4292L92.5328 26.613C92.5631 26.6584 92.5631 26.7039 92.5782 26.7646C92.5782 26.9162 92.457 27.0375 92.3053 27.0375H90.4557C90.2132 27.0526 90.0009 26.9162 89.91 26.6888L88.4697 23.8537H87.2114V26.6888C87.2114 26.7797 87.181 26.8555 87.1204 26.9162C87.0597 26.9768 86.9688 27.0071 86.8778 27.0071H85.0889C85.0131 27.0071 84.9221 26.9617 84.8766 26.901ZM88.6668 21.898C88.9852 21.9283 89.2884 21.8222 89.5309 21.6099C89.728 21.3977 89.8342 21.1248 89.819 20.8367C89.8342 20.5487 89.728 20.2606 89.5309 20.0332C89.3035 19.821 88.9852 19.7149 88.6668 19.73H87.2114V21.898H88.6668Z" fill="white"/>
<path d="M94.109 26.9163C94.0635 26.8708 94.0332 26.795 94.0332 26.7344C94.0332 26.6889 94.0332 26.6586 94.0332 26.6131L97.0805 18.2293C97.1411 17.9867 97.3686 17.8199 97.6263 17.8502H99.673C99.9307 17.8199 100.158 17.9867 100.219 18.2293L103.266 26.6131C103.266 26.6586 103.266 26.6889 103.266 26.7344C103.266 26.8102 103.236 26.8708 103.19 26.9163C103.145 26.977 103.069 27.0073 102.993 27.0073H101.295C101.098 27.0224 100.916 26.9012 100.856 26.7192L100.386 25.4609H96.9592L96.4892 26.7192C96.4134 26.9012 96.2315 27.0224 96.0496 27.0073H94.3516C94.2455 27.0073 94.1696 26.977 94.109 26.9163ZM97.4747 23.49H99.7943L98.6269 20.1698L97.4747 23.49Z" fill="white"/>
<path d="M105.025 26.9162C104.964 26.8555 104.919 26.7646 104.934 26.6888V18.1988C104.934 18.1078 104.964 18.0168 105.025 17.9562C105.086 17.8956 105.177 17.8501 105.268 17.8652H106.738C106.935 17.8501 107.117 17.9714 107.208 18.1533L109.467 22.186L111.726 18.1533C111.817 17.9714 111.999 17.8501 112.196 17.8652H113.667C113.849 17.8652 114 18.0017 114 18.1836C114 18.1836 114 18.1836 114 18.1988V26.6888C114 26.7797 113.97 26.8555 113.909 26.9162C113.849 26.9768 113.758 27.0071 113.667 27.0071H111.999C111.817 27.0071 111.681 26.8555 111.665 26.6736V21.9131L110.225 24.5056C110.134 24.6875 109.967 24.7937 109.77 24.8088H109.058C108.861 24.7937 108.679 24.6875 108.603 24.5056L107.208 21.9131V26.6736C107.208 26.7646 107.178 26.8404 107.117 26.901C107.057 26.9616 106.966 26.992 106.875 26.992H105.237C105.177 27.0071 105.086 26.9768 105.025 26.9162Z" fill="white"/>
<path d="M0.464235 5V1.34205H1.61643C1.88864 1.34205 2.13101 1.37747 2.34355 1.44832C2.55609 1.51917 2.72389 1.63663 2.84694 1.80069C2.96999 1.96476 3.03151 2.18849 3.03151 2.47188C3.03151 2.74035 2.96999 2.96221 2.84694 3.13747C2.72389 3.31272 2.55795 3.44323 2.34914 3.52899C2.14033 3.61475 1.90355 3.65763 1.63881 3.65763H1.11305V5H0.464235ZM1.11305 3.13747H1.58847C2.12541 3.13747 2.39389 2.9156 2.39389 2.47188C2.39389 2.24069 2.32304 2.08222 2.18135 1.99645C2.04338 1.90696 1.8383 1.86222 1.56609 1.86222H1.11305V3.13747ZM4.66232 5.06712C4.43486 5.06712 4.22232 5.01119 4.0247 4.89932C3.82707 4.78373 3.66673 4.61966 3.54368 4.40712C3.42063 4.19085 3.35911 3.9317 3.35911 3.62967C3.35911 3.32391 3.42063 3.06475 3.54368 2.85221C3.66673 2.63594 3.82707 2.47188 4.0247 2.36001C4.22232 2.24442 4.43486 2.18662 4.66232 2.18662C4.89351 2.18662 5.10791 2.24442 5.30554 2.36001C5.50316 2.47188 5.6635 2.63594 5.78655 2.85221C5.9096 3.06475 5.97113 3.32391 5.97113 3.62967C5.97113 3.9317 5.9096 4.19085 5.78655 4.40712C5.6635 4.61966 5.50316 4.78373 5.30554 4.89932C5.10791 5.01119 4.89351 5.06712 4.66232 5.06712ZM4.66232 4.54136C4.86368 4.54136 5.02215 4.45746 5.13774 4.28966C5.25334 4.12187 5.31113 3.90187 5.31113 3.62967C5.31113 3.35374 5.25334 3.13187 5.13774 2.96408C5.02215 2.79628 4.86368 2.71238 4.66232 2.71238C4.46097 2.71238 4.30249 2.79628 4.1869 2.96408C4.07504 3.13187 4.0191 3.35374 4.0191 3.62967C4.0191 3.90187 4.07504 4.12187 4.1869 4.28966C4.30249 4.45746 4.46097 4.54136 4.66232 4.54136ZM7.02807 5L6.30095 2.25374H6.94976L7.27976 3.68001C7.30959 3.81051 7.33383 3.94102 7.35247 4.07153C7.37485 4.20204 7.39908 4.33441 7.42518 4.46865H7.44756C7.47366 4.33441 7.49976 4.20204 7.52586 4.07153C7.55569 3.93729 7.58739 3.80679 7.62095 3.68001L7.97891 2.25374H8.5662L8.92975 3.68001C8.96331 3.81051 8.99501 3.94102 9.02484 4.07153C9.05467 4.20204 9.0845 4.33441 9.11433 4.46865H9.1367C9.1628 4.33441 9.18704 4.20204 9.20941 4.07153C9.23179 3.94102 9.25602 3.81051 9.28213 3.68001L9.61212 2.25374H10.2162L9.51704 5H8.75077L8.43196 3.71916C8.40213 3.58865 8.37416 3.46001 8.34806 3.33323C8.32196 3.20272 8.29399 3.06475 8.26416 2.91933H8.24179C8.21569 3.06475 8.18959 3.20272 8.16349 3.33323C8.13738 3.46374 8.10942 3.59424 8.07959 3.72475L7.76637 5H7.02807ZM11.9008 5.06712C11.6472 5.06712 11.4179 5.01119 11.2128 4.89932C11.0077 4.78373 10.8455 4.61966 10.7262 4.40712C10.6069 4.19085 10.5472 3.9317 10.5472 3.62967C10.5472 3.33136 10.6069 3.07408 10.7262 2.85781C10.8493 2.64154 11.0077 2.4756 11.2016 2.36001C11.3955 2.24442 11.5988 2.18662 11.8113 2.18662C12.0611 2.18662 12.2699 2.24256 12.4377 2.35442C12.6055 2.46255 12.7323 2.61543 12.8181 2.81306C12.9038 3.00696 12.9467 3.23255 12.9467 3.48984C12.9467 3.62407 12.9374 3.72848 12.9187 3.80306H11.1737C11.2035 4.04543 11.2911 4.23373 11.4366 4.36797C11.582 4.50221 11.7647 4.56932 11.9847 4.56932C12.104 4.56932 12.214 4.55254 12.3147 4.51899C12.4191 4.4817 12.5216 4.43136 12.6223 4.36797L12.8404 4.77068C12.7099 4.85644 12.5645 4.92729 12.4042 4.98322C12.2438 5.03915 12.076 5.06712 11.9008 5.06712ZM11.1681 3.36679H12.3874C12.3874 3.15425 12.3408 2.98831 12.2476 2.86899C12.1543 2.74594 12.0145 2.68442 11.8281 2.68442C11.6677 2.68442 11.5242 2.74408 11.3974 2.8634C11.2744 2.97899 11.1979 3.14679 11.1681 3.36679ZM13.561 5V2.25374H14.0924L14.1371 2.74035H14.1595C14.2565 2.56137 14.3739 2.42527 14.5119 2.33205C14.6499 2.2351 14.7916 2.18662 14.937 2.18662C15.0675 2.18662 15.1719 2.20527 15.2502 2.24255L15.1383 2.80187C15.0899 2.78696 15.0451 2.77577 15.0041 2.76832C14.9631 2.76086 14.9127 2.75713 14.8531 2.75713C14.7449 2.75713 14.6312 2.80001 14.5119 2.88577C14.3926 2.96781 14.29 3.11323 14.2043 3.32204V5H13.561ZM16.7675 5.06712C16.514 5.06712 16.2846 5.01119 16.0796 4.89932C15.8745 4.78373 15.7123 4.61966 15.593 4.40712C15.4736 4.19085 15.414 3.9317 15.414 3.62967C15.414 3.33136 15.4736 3.07408 15.593 2.85781C15.716 2.64154 15.8745 2.4756 16.0684 2.36001C16.2623 2.24442 16.4655 2.18662 16.678 2.18662C16.9279 2.18662 17.1367 2.24256 17.3045 2.35442C17.4723 2.46255 17.599 2.61543 17.6848 2.81306C17.7706 3.00696 17.8135 3.23255 17.8135 3.48984C17.8135 3.62407 17.8041 3.72848 17.7855 3.80306H16.0404C16.0702 4.04543 16.1579 4.23373 16.3033 4.36797C16.4487 4.50221 16.6314 4.56932 16.8514 4.56932C16.9707 4.56932 17.0807 4.55254 17.1814 4.51899C17.2858 4.4817 17.3884 4.43136 17.489 4.36797L17.7072 4.77068C17.5767 4.85644 17.4312 4.92729 17.2709 4.98322C17.1106 5.03915 16.9428 5.06712 16.7675 5.06712ZM16.0348 3.36679H17.2541C17.2541 3.15425 17.2075 2.98831 17.1143 2.86899C17.0211 2.74594 16.8813 2.68442 16.6948 2.68442C16.5345 2.68442 16.3909 2.74408 16.2641 2.8634C16.1411 2.97899 16.0646 3.14679 16.0348 3.36679ZM19.3898 5.06712C19.0468 5.06712 18.7727 4.94034 18.5676 4.68678C18.3625 4.43322 18.26 4.08085 18.26 3.62967C18.26 3.33136 18.3141 3.07408 18.4222 2.85781C18.5341 2.64154 18.6795 2.4756 18.8585 2.36001C19.0374 2.24442 19.2257 2.18662 19.4234 2.18662C19.58 2.18662 19.7124 2.21459 19.8205 2.27052C19.9324 2.32272 20.0405 2.39544 20.1449 2.48866L20.1225 2.04679V1.0512H20.7657V5H20.2344L20.1896 4.70356H20.1673C20.0666 4.80424 19.9491 4.89 19.8149 4.96085C19.6807 5.03169 19.539 5.06712 19.3898 5.06712ZM19.5464 4.53576C19.7515 4.53576 19.9435 4.43322 20.1225 4.22814V2.9473C20.0293 2.86154 19.9361 2.80187 19.8429 2.76832C19.7496 2.73476 19.6564 2.71798 19.5632 2.71798C19.388 2.71798 19.2369 2.79815 19.1102 2.95848C18.9871 3.11509 18.9256 3.33696 18.9256 3.62407C18.9256 3.91865 18.9796 4.14424 19.0878 4.30085C19.1959 4.45746 19.3488 4.53576 19.5464 4.53576ZM24.0358 5.06712C23.7748 5.06712 23.5249 4.9478 23.2863 4.70915H23.2695L23.2136 5H22.7046V1.0512H23.3478V2.06917L23.331 2.52781C23.4466 2.42713 23.5734 2.3451 23.7114 2.28171C23.8494 2.21832 23.9873 2.18662 24.1253 2.18662C24.4683 2.18662 24.7349 2.3134 24.9251 2.56696C25.1153 2.82052 25.2104 3.15797 25.2104 3.57933C25.2104 3.89255 25.1544 4.16102 25.0426 4.38475C24.9307 4.60475 24.7853 4.77441 24.6063 4.89373C24.431 5.00932 24.2409 5.06712 24.0358 5.06712ZM23.9016 4.53576C24.0843 4.53576 24.2371 4.4556 24.3602 4.29526C24.4832 4.13492 24.5448 3.90001 24.5448 3.59051C24.5448 3.31458 24.4982 3.10018 24.4049 2.9473C24.3117 2.79442 24.1607 2.71798 23.9519 2.71798C23.758 2.71798 23.5566 2.82052 23.3478 3.0256V4.30644C23.4448 4.38848 23.5399 4.44814 23.6331 4.48543C23.73 4.51899 23.8195 4.53576 23.9016 4.53576ZM26.008 6.12983C25.9335 6.12983 25.8682 6.12423 25.8123 6.11305C25.7564 6.10186 25.7023 6.08881 25.6501 6.07389L25.7675 5.57051C25.7936 5.57796 25.8235 5.58542 25.857 5.59288C25.8943 5.60407 25.9297 5.60966 25.9633 5.60966C26.1087 5.60966 26.2243 5.56491 26.3101 5.47542C26.3996 5.38966 26.4667 5.2778 26.5114 5.13983L26.5618 4.96644L25.4823 2.25374H26.1367L26.6121 3.6017C26.6531 3.72102 26.6923 3.8478 26.7296 3.98204C26.7706 4.11255 26.8116 4.24305 26.8526 4.37356H26.875C26.9086 4.24678 26.9421 4.11814 26.9757 3.98763C27.013 3.8534 27.0484 3.72475 27.0819 3.6017L27.4958 2.25374H28.1167L27.1211 5.12305C27.0055 5.43254 26.8657 5.67678 26.7016 5.85576C26.5375 6.03847 26.3064 6.12983 26.008 6.12983Z" fill="white"/>
</svg>
