<svg width="24" height="25" viewBox="0 0 24 25" fill="none" xmlns="http://www.w3.org/2000/svg">
<path d="M21.7408 12.6602L12.7418 2.65291C12.3628 2.23061 11.6349 2.23061 11.2559 2.65291L2.25696 12.6602C2.12743 12.8039 2.0424 12.9821 2.01223 13.1733C1.98205 13.3645 2.00802 13.5603 2.08697 13.7369C2.24696 14.0982 2.60492 14.3304 2.99987 14.3304H4.99965V21.3355C4.99965 21.6009 5.10499 21.8554 5.29251 22.0431C5.48002 22.2307 5.73435 22.3362 5.99954 22.3362H8.9992C9.26439 22.3362 9.51871 22.2307 9.70623 22.0431C9.89374 21.8554 9.99909 21.6009 9.99909 21.3355V17.3326H13.9986V21.3355C13.9986 21.6009 14.104 21.8554 14.2915 22.0431C14.479 22.2307 14.7333 22.3362 14.9985 22.3362H17.9982C18.2634 22.3362 18.5177 22.2307 18.7052 22.0431C18.8927 21.8554 18.9981 21.6009 18.9981 21.3355V14.3304H20.9979C21.1915 14.3312 21.3812 14.2756 21.5438 14.1704C21.7065 14.0652 21.835 13.9149 21.9137 13.7378C21.9925 13.5608 22.0181 13.3646 21.9874 13.1733C21.9567 12.9819 21.871 12.8036 21.7408 12.6602V12.6602Z" fill="white"/>
</svg>
