<svg width="40" height="36" viewBox="0 0 40 36" fill="none" xmlns="http://www.w3.org/2000/svg">
<path d="M3.05136 30.4968L4.77893 33.4806C5.13791 34.1089 5.65389 34.6026 6.25969 34.9615C7.99492 32.759 9.20254 31.0688 9.88316 29.891C10.5737 28.6957 11.4225 26.826 12.4295 24.2821C9.71561 23.9248 7.65904 23.7462 6.25984 23.7462C4.9168 23.7462 2.86024 23.9248 0.0898438 24.2821C0.0898438 24.9776 0.269334 25.673 0.628315 26.3013L3.05136 30.4968Z" fill="#0066DA"/>
<path d="M33.0966 34.9615C33.7025 34.6026 34.2185 34.1089 34.5773 33.4808L35.2953 32.2468L38.7281 26.3013C39.0804 25.6867 39.266 24.9906 39.2664 24.2821C36.48 23.9248 34.4272 23.7462 33.1079 23.7462C31.69 23.7462 29.6371 23.9248 26.9492 24.2821C27.9443 26.8399 28.7819 28.7097 29.4621 29.891C30.1481 31.0828 31.3595 32.7729 33.0966 34.9615Z" fill="#EA4335"/>
<path d="M19.6777 11.7179C21.6853 9.29334 23.0688 7.42361 23.8283 6.10903C24.4399 5.05045 25.113 3.36022 25.8475 1.03847C25.2417 0.67949 24.5462 0.5 23.8283 0.5H15.527C14.8091 0.5 14.1138 0.701984 13.5078 1.03847C14.4421 3.70129 15.2351 5.59642 15.8863 6.72371C16.6061 7.96958 17.8699 9.63427 19.6777 11.7179Z" fill="#00832D"/>
<path d="M26.925 24.2821H12.4314L6.26172 34.9615C6.86736 35.3205 7.56283 35.5 8.28079 35.5H31.0756C31.7936 35.5 32.4892 35.298 33.0948 34.9614L26.9251 24.2821H26.925Z" fill="#2684FC"/>
<path d="M19.6763 11.7179L13.5066 1.03863C12.9007 1.39761 12.3847 1.89109 12.0257 2.51938L0.628315 22.2629C0.275933 22.8775 0.0903093 23.5736 0.0898438 24.2821H12.4295L19.6765 11.7179H19.6763Z" fill="#00AC47"/>
<path d="M33.0251 12.391L27.3262 2.51922C26.9674 1.89093 26.4513 1.39745 25.8455 1.03847L19.6758 11.7179L26.9224 24.2821H39.2398C39.2398 23.5865 39.0603 22.8911 38.7013 22.2629L33.0251 12.391Z" fill="#FFBA00"/>
</svg>
