<svg width="1350" height="800" viewBox="0 0 1350 800" fill="none" xmlns="http://www.w3.org/2000/svg">
<path d="M1341.08 -81.9993L1341.08 881.331" stroke="white" stroke-opacity="0.04" stroke-width="0.982172"/>
<path d="M1305 -81.9993L1305 881.331" stroke="white" stroke-opacity="0.04" stroke-width="0.982172"/>
<path d="M1268.92 -81.9993L1268.92 881.331" stroke="white" stroke-opacity="0.04" stroke-width="0.982172"/>
<path d="M1232.83 -81.9993L1232.83 881.331" stroke="white" stroke-opacity="0.04" stroke-width="0.982172"/>
<path d="M1196.76 -81.9993L1196.76 881.331" stroke="white" stroke-opacity="0.04" stroke-width="0.982172"/>
<path d="M1160.67 -81.9993L1160.67 881.331" stroke="white" stroke-opacity="0.04" stroke-width="0.982172"/>
<path d="M1124.6 -81.9993L1124.6 881.331" stroke="white" stroke-opacity="0.04" stroke-width="0.982172"/>
<path d="M1088.52 -81.9993L1088.52 881.331" stroke="white" stroke-opacity="0.04" stroke-width="0.982172"/>
<path d="M1052.44 -81.9993L1052.44 881.331" stroke="white" stroke-opacity="0.04" stroke-width="0.982172"/>
<path d="M1016.36 -81.9993L1016.36 881.331" stroke="white" stroke-opacity="0.04" stroke-width="0.982172"/>
<path d="M980.277 -81.9993L980.277 881.331" stroke="white" stroke-opacity="0.04" stroke-width="0.982172"/>
<path d="M944.195 -81.9993L944.195 881.331" stroke="white" stroke-opacity="0.04" stroke-width="0.982172"/>
<path d="M908.117 -81.9993L908.117 881.331" stroke="white" stroke-opacity="0.04" stroke-width="0.982172"/>
<path d="M872.037 -81.9993L872.037 881.331" stroke="white" stroke-opacity="0.04" stroke-width="0.982172"/>
<path d="M835.957 -81.9993L835.957 881.331" stroke="white" stroke-opacity="0.04" stroke-width="0.982172"/>
<path d="M799.879 -81.9993L799.879 881.331" stroke="white" stroke-opacity="0.04" stroke-width="0.982172"/>
<path d="M763.801 -81.9993L763.801 881.331" stroke="white" stroke-opacity="0.04" stroke-width="0.982172"/>
<path d="M727.723 -81.9993L727.723 881.331" stroke="white" stroke-opacity="0.04" stroke-width="0.982172"/>
<path d="M691.643 -81.9993L691.643 881.331" stroke="white" stroke-opacity="0.04" stroke-width="0.982172"/>
<path d="M655.555 -81.9993L655.555 881.331" stroke="white" stroke-opacity="0.04" stroke-width="0.982172"/>
<path d="M619.479 -81.9993L619.478 881.331" stroke="white" stroke-opacity="0.04" stroke-width="0.982172"/>
<path d="M583.398 -81.9993L583.398 881.331" stroke="white" stroke-opacity="0.04" stroke-width="0.982172"/>
<path d="M547.318 -81.9993L547.318 881.331" stroke="white" stroke-opacity="0.04" stroke-width="0.982172"/>
<path d="M511.24 -81.9993L511.24 881.331" stroke="white" stroke-opacity="0.04" stroke-width="0.982172"/>
<path d="M475.16 -81.9993L475.16 881.331" stroke="white" stroke-opacity="0.04" stroke-width="0.982172"/>
<path d="M439.084 -81.9993L439.084 881.331" stroke="white" stroke-opacity="0.04" stroke-width="0.982172"/>
<path d="M403.004 -81.9993L403.004 881.331" stroke="white" stroke-opacity="0.04" stroke-width="0.982172"/>
<path d="M366.918 -81.9993L366.918 881.331" stroke="white" stroke-opacity="0.04" stroke-width="0.982172"/>
<path d="M330.84 -81.9993L330.84 881.331" stroke="white" stroke-opacity="0.04" stroke-width="0.982172"/>
<path d="M294.758 -81.9993L294.758 881.331" stroke="white" stroke-opacity="0.04" stroke-width="0.982172"/>
<path d="M258.682 -81.9993L258.682 881.331" stroke="white" stroke-opacity="0.04" stroke-width="0.982172"/>
<path d="M222.602 -81.9993L222.602 881.331" stroke="white" stroke-opacity="0.04" stroke-width="0.982172"/>
<path d="M186.523 -81.9993L186.523 881.331" stroke="white" stroke-opacity="0.04" stroke-width="0.982172"/>
<path d="M150.445 -81.9993L150.445 881.331" stroke="white" stroke-opacity="0.04" stroke-width="0.982172"/>
<path d="M114.359 -81.9993L114.359 881.331" stroke="white" stroke-opacity="0.04" stroke-width="0.982172"/>
<path d="M78.2812 -81.9993L78.2812 881.331" stroke="white" stroke-opacity="0.04" stroke-width="0.982172"/>
<path d="M42.2012 -81.9993L42.2011 881.331" stroke="white" stroke-opacity="0.04" stroke-width="0.982172"/>
<path d="M6.12109 -81.9993L6.12105 881.331" stroke="white" stroke-opacity="0.04" stroke-width="0.982172"/>
<path d="M-48.002 2.99947L1395.19 2.99946" stroke="white" stroke-opacity="0.04" stroke-width="0.982172"/>
<path d="M-48.002 40.7776L1395.19 40.7776" stroke="white" stroke-opacity="0.04" stroke-width="0.982172"/>
<path d="M-48.002 78.5547L1395.19 78.5547" stroke="white" stroke-opacity="0.04" stroke-width="0.982172"/>
<path d="M-48.002 116.333L1395.19 116.333" stroke="white" stroke-opacity="0.04" stroke-width="0.982172"/>
<path d="M-48.002 154.11L1395.19 154.11" stroke="white" stroke-opacity="0.04" stroke-width="0.982172"/>
<path d="M-48.002 191.888L1395.19 191.888" stroke="white" stroke-opacity="0.04" stroke-width="0.982172"/>
<path d="M-48.002 229.665L1395.19 229.665" stroke="white" stroke-opacity="0.04" stroke-width="0.982172"/>
<path d="M-48.002 267.443L1395.19 267.443" stroke="white" stroke-opacity="0.04" stroke-width="0.982172"/>
<path d="M-48.002 305.221L1395.19 305.221" stroke="white" stroke-opacity="0.04" stroke-width="0.982172"/>
<path d="M-48.002 342.999L1395.19 342.999" stroke="white" stroke-opacity="0.04" stroke-width="0.982172"/>
<path d="M-48.002 380.776L1395.19 380.776" stroke="white" stroke-opacity="0.04" stroke-width="0.982172"/>
<path d="M-48.002 418.554L1395.19 418.554" stroke="white" stroke-opacity="0.04" stroke-width="0.982172"/>
<path d="M-48.002 456.331L1395.19 456.331" stroke="white" stroke-opacity="0.04" stroke-width="0.982172"/>
<path d="M-48.002 494.109L1395.19 494.109" stroke="white" stroke-opacity="0.04" stroke-width="0.982172"/>
<path d="M-48.002 531.886L1395.19 531.886" stroke="white" stroke-opacity="0.04" stroke-width="0.982172"/>
<path d="M-48.002 569.664L1395.19 569.664" stroke="white" stroke-opacity="0.04" stroke-width="0.982172"/>
<path d="M-48.002 607.442L1395.19 607.442" stroke="white" stroke-opacity="0.04" stroke-width="0.982172"/>
<path d="M-48.002 645.22L1395.19 645.22" stroke="white" stroke-opacity="0.04" stroke-width="0.982172"/>
<path d="M-48.002 682.997L1395.19 682.997" stroke="white" stroke-opacity="0.04" stroke-width="0.982172"/>
<path d="M-48.002 720.774L1395.19 720.774" stroke="white" stroke-opacity="0.04" stroke-width="0.982172"/>
<path d="M-48.002 758.552L1395.19 758.552" stroke="white" stroke-opacity="0.04" stroke-width="0.982172"/>
<path d="M-48.002 796.331L1395.19 796.331" stroke="white" stroke-opacity="0.04" stroke-width="0.982172"/>
</svg>
