<svg width="21" height="20" viewBox="0 0 21 20" fill="none" xmlns="http://www.w3.org/2000/svg">
<path d="M14.9409 4.6129L10.5402 0.227575C10.3965 0.0827289 10.2012 0.000872591 9.99719 6.93592e-06C9.79318 -0.000858719 9.59718 0.0793372 9.4523 0.222958L9.44768 0.227575L5.06236 4.6129H0.769355C0.565309 4.6129 0.369621 4.69396 0.225339 4.83824C0.0810568 4.98252 0 5.17821 0 5.38225V19.2306C0 19.4347 0.0810568 19.6304 0.225339 19.7747C0.369621 19.9189 0.565309 20 0.769355 20H19.2339C19.4379 20 19.6336 19.9189 19.7779 19.7747C19.9222 19.6304 20.0032 19.4347 20.0032 19.2306V5.38225C20.0032 5.17821 19.9222 4.98252 19.7779 4.83824C19.6336 4.69396 19.4379 4.6129 19.2339 4.6129H14.9409ZM10.0016 1.85861L12.7559 4.6129H7.24732L10.0016 1.85861ZM18.4645 18.4613H1.53871V6.15161H18.4645V18.4613ZM6.15484 10.7677C5.74675 10.7677 5.35537 10.6056 5.06681 10.3171C4.77824 10.0285 4.61613 9.63712 4.61613 9.22903C4.61613 8.82094 4.77824 8.42956 5.06681 8.141C5.35537 7.85243 5.74675 7.69032 6.15484 7.69032C6.56293 7.69032 6.95431 7.85243 7.24287 8.141C7.53144 8.42956 7.69355 8.82094 7.69355 9.22903C7.69355 9.63712 7.53144 10.0285 7.24287 10.3171C6.95431 10.6056 6.56293 10.7677 6.15484 10.7677ZM16.9258 16.9226H5.38549L7.69355 12.3064L9.61694 16.1532L13.079 9.22903L16.9258 16.9226Z" fill="#121132"/>
</svg>
