<svg width="40" height="26" viewBox="0 0 40 26" fill="none" xmlns="http://www.w3.org/2000/svg">
<path d="M24.1648 17.4805L32.4213 9.58459C30.7063 2.89711 23.8948 -1.13365 17.2073 0.581498C14.1959 1.35382 11.5803 3.22057 9.87109 5.81741C9.99875 5.81429 24.1648 17.4805 24.1648 17.4805Z" fill="#0364B8"/>
<path d="M15.2527 7.30396L15.2524 7.30537C13.6748 6.32822 11.8553 5.81174 9.99949 5.81428C9.95668 5.81428 9.91449 5.81694 9.87168 5.8174C4.35186 5.88584 -0.0675003 10.4161 0.000780687 15.9361C0.0255773 17.9384 0.651196 19.887 1.79655 21.5295L14.166 19.9803L23.6494 12.3335L15.2527 7.30396Z" fill="#0078D4"/>
<path d="M32.4209 9.58457C32.2384 9.57165 32.0555 9.56482 31.8725 9.56411C30.7649 9.56303 29.6688 9.78926 28.6522 10.2288L28.6519 10.228L23.6484 12.3335L29.1644 19.147L39.0252 21.5441C41.1534 17.5936 39.6759 12.666 35.7253 10.5379C34.7044 9.98801 33.5777 9.66302 32.4209 9.58473V9.58457Z" fill="#1490DF"/>
<path d="M1.79688 21.5295C2.71704 22.8525 3.94373 23.9332 5.3722 24.6791C6.80066 25.4251 8.38845 25.8143 9.99997 25.8134H31.8739C33.3405 25.8138 34.7799 25.4172 36.0392 24.6655C37.2986 23.9139 38.3309 22.8353 39.0267 21.5442L23.6498 12.3333L1.79688 21.5295Z" fill="#28A8EA"/>
</svg>
