<svg width="20" height="21" viewBox="0 0 20 21" fill="none" xmlns="http://www.w3.org/2000/svg">
<path d="M9.67892 20.336C10.0575 20.3273 10.4208 20.185 10.7045 19.9342C10.9883 19.6835 11.1742 19.3405 11.2294 18.9658H8.06836C8.12513 19.3506 8.31975 19.7017 8.61601 19.9538C8.91227 20.2058 9.29 20.3416 9.67892 20.336Z" fill="#121132"/>
<path d="M18.3995 16.4598C17.82 15.9432 17.3126 15.3509 16.8911 14.699C16.4309 13.7991 16.1551 12.8163 16.0798 11.8084V8.83965C16.0774 8.47905 16.0452 8.11926 15.9836 7.76394C15.5106 7.66939 15.0561 7.49892 14.6375 7.25914C14.797 7.77286 14.8781 8.30774 14.8779 8.84566V11.8144C14.9515 13.044 15.2898 14.2431 15.8695 15.33C16.2844 15.9874 16.7767 16.5927 17.3358 17.1329H1.9453C2.50444 16.5927 2.99673 15.9874 3.41164 15.33C3.99133 14.2431 4.32956 13.044 4.40321 11.8144V8.83965C4.40005 8.14416 4.53411 7.45487 4.79771 6.81126C5.06131 6.16765 5.44927 5.58235 5.93939 5.08888C6.42951 4.59542 7.01215 4.20347 7.65395 3.9355C8.29575 3.66752 8.98411 3.52877 9.67961 3.5272C10.6975 3.52801 11.6925 3.82903 12.5402 4.39258C12.4467 4.04942 12.3943 3.6964 12.3839 3.3409V2.9623C11.7564 2.65363 11.0823 2.45058 10.3887 2.36134V1.60414C10.3887 1.39136 10.3042 1.1873 10.1538 1.03684C10.0033 0.886388 9.79924 0.801863 9.58646 0.801863C9.37369 0.801863 9.16962 0.886388 9.01917 1.03684C8.86871 1.1873 8.78419 1.39136 8.78419 1.60414V2.39139C7.23115 2.61047 5.8098 3.38402 4.78255 4.56922C3.7553 5.75442 3.19152 7.27124 3.19529 8.83965V11.8084C3.12002 12.8163 2.8442 13.7991 2.384 14.699C1.96987 15.3494 1.47066 15.9416 0.899638 16.4598C0.835535 16.5161 0.784159 16.5854 0.748928 16.6631C0.713698 16.7408 0.695421 16.8252 0.695312 16.9105V17.7278C0.695312 17.8872 0.758627 18.04 0.871329 18.1527C0.98403 18.2654 1.13689 18.3288 1.29627 18.3288H18.0029C18.1622 18.3288 18.3151 18.2654 18.4278 18.1527C18.5405 18.04 18.6038 17.8872 18.6038 17.7278V16.9105C18.6037 16.8252 18.5854 16.7408 18.5502 16.6631C18.515 16.5854 18.4636 16.5161 18.3995 16.4598Z" fill="#121132"/>
<path d="M16.8895 6.34575C18.549 6.34575 19.8943 5.00046 19.8943 3.34096C19.8943 1.68147 18.549 0.336182 16.8895 0.336182C15.2301 0.336182 13.8848 1.68147 13.8848 3.34096C13.8848 5.00046 15.2301 6.34575 16.8895 6.34575Z" fill="#121132"/>
</svg>
