<svg width="40" height="40" viewBox="0 0 40 40" fill="none" xmlns="http://www.w3.org/2000/svg">
<path d="M24.393 2.28367e-06C24.5811 -0.000333746 24.7675 0.0364171 24.9414 0.108154C25.1153 0.179891 25.2734 0.285206 25.4066 0.41808L39.5808 14.5926C39.8492 14.8611 40 15.2253 40 15.6049C40 15.9846 39.8492 16.3487 39.5808 16.6172C38.2063 17.9917 36.5112 18.3009 35.277 18.3009C34.7702 18.3009 34.3178 18.2494 33.9598 18.1893L24.9857 27.1636C25.2219 28.1155 25.3752 29.0861 25.4439 30.0644C25.5756 32.0746 25.3522 34.8952 23.3822 36.8653C23.1137 37.1338 22.7496 37.2845 22.3699 37.2845C21.9903 37.2845 21.6262 37.1338 21.3577 36.8653L13.2569 28.7672L4.14538 37.879C3.58701 38.4374 0.654813 40.462 0.0964367 39.9036C-0.46194 39.3452 1.56253 36.41 2.12091 35.8545L11.2325 26.7427L3.13458 18.6417C2.86617 18.3732 2.71538 18.0091 2.71538 17.6294C2.71538 17.2498 2.86617 16.8857 3.13458 16.6172C5.10464 14.6471 7.92516 14.4208 9.93532 14.5554C10.9136 14.624 11.8842 14.7773 12.836 15.0136L21.8101 6.04209C21.7352 5.60602 21.6969 5.16445 21.6956 4.722C21.6956 3.49067 22.0048 1.79545 23.3822 0.41808C23.6505 0.150427 24.014 8.28037e-05 24.393 2.28367e-06ZM24.7423 6.04782V6.04209V6.04782ZM24.7423 6.04209V6.04782C24.825 6.29972 24.8361 6.56964 24.7745 6.8275C24.7128 7.08535 24.5807 7.32102 24.393 7.50823L14.2706 17.628C14.0825 17.8153 13.8461 17.9466 13.5877 18.0073C13.3293 18.068 13.0592 18.0556 12.8074 17.9716H12.8016L12.7616 17.9602C12.4891 17.8786 12.2141 17.806 11.9369 17.7426C11.2165 17.5745 10.4841 17.4635 9.74633 17.4104C8.53794 17.3302 7.35247 17.4333 6.38175 17.8399L22.1595 33.6152C22.5632 32.6416 22.6663 31.459 22.5861 30.2505C22.5132 29.2275 22.3288 28.2154 22.0363 27.2324L22.0249 27.1951V27.1923C21.9403 26.9401 21.9277 26.6693 21.9884 26.4104C22.0491 26.1514 22.1807 25.9145 22.3685 25.7261L32.4937 15.6035C32.6887 15.4073 32.9363 15.2718 33.2067 15.2134C33.477 15.1549 33.7585 15.1761 34.0171 15.2742L34.292 15.3372C34.5411 15.3859 34.8876 15.4345 35.277 15.4345C35.6035 15.4345 35.9356 15.403 36.2592 15.32L24.6765 3.7398C24.5934 4.06338 24.5619 4.39841 24.5619 4.722C24.5633 5.16694 24.623 5.60979 24.7395 6.03923L24.7423 6.04209Z" fill="#121132"/>
</svg>
