<svg width="21" height="21" viewBox="0 0 21 21" fill="none" xmlns="http://www.w3.org/2000/svg">
<path d="M17.5434 0.335974C18.7739 0.329191 19.7153 1.27604 19.7099 2.51455C19.7045 3.70693 18.7563 4.66599 17.5772 4.67142C16.3778 4.67684 15.377 3.67302 15.3932 2.48199C15.4081 1.29368 16.3616 0.342757 17.5434 0.335974Z" fill="white"/>
<path d="M5.40794 2.49962C5.40523 1.29775 4.47599 0.350896 3.28743 0.337331C2.06915 0.323766 1.09129 1.28282 1.08589 2.49827C1.08049 3.66488 2.05024 4.65242 3.21855 4.67141C4.42737 4.68905 5.41063 3.71507 5.40794 2.49962Z" fill="white"/>
<path d="M13.7346 14.5767H7.17997C6.73021 12.4768 7.6662 11.1963 9.75834 11.0878C10.4242 11.0525 11.1117 11.0756 11.7627 11.2085C13.1674 11.4934 13.7319 12.2503 13.736 13.6733C13.736 13.8122 13.7357 13.9507 13.7353 14.094C13.735 14.2474 13.7346 14.4063 13.7346 14.5767Z" fill="white"/>
<path d="M12.6312 8.12512C12.6501 6.89204 11.6546 5.88957 10.4121 5.88957C9.15731 5.88957 8.19025 6.8622 8.19835 8.11698C8.20511 9.35413 9.22214 10.3634 10.4391 10.343C11.629 10.3227 12.6122 9.32835 12.6312 8.12512Z" fill="white"/>
<path fill-rule="evenodd" clip-rule="evenodd" d="M10.2972 17.7198C14.2506 17.7483 17.3651 14.6948 17.3989 10.7581C17.4313 6.83235 14.3249 3.66895 10.4215 3.65131C6.57219 3.63368 3.4441 6.76453 3.41304 10.6672C3.38198 14.5252 6.47359 17.6927 10.2972 17.7198ZM4.52597 10.6442C4.53947 7.38446 7.17862 4.77451 10.4431 4.78943C13.6887 4.80571 16.313 7.45771 16.3049 10.712C16.2954 13.9853 13.605 16.6495 10.3405 16.6197C7.10974 16.5912 4.51111 13.9202 4.52597 10.6442Z" fill="white"/>
<path d="M16.2048 15.6987C15.7929 16.1254 15.3871 16.5459 14.9745 16.9723C15.2395 17.2416 15.5141 17.5238 15.7965 17.814C16.4943 18.5311 17.2402 19.2976 18.0094 20.0422C18.47 20.4871 19.2196 20.4016 19.6545 19.954C20.084 19.5104 20.1299 18.7765 19.6734 18.3004C18.9273 17.5244 18.1619 16.7671 17.4349 16.0476L17.4347 16.0475L17.4346 16.0474C17.1614 15.7771 16.8937 15.5122 16.6345 15.2536C16.4902 15.4031 16.3471 15.5513 16.2048 15.6987Z" fill="white"/>
<path d="M0.082363 8.86171C-0.290414 6.64651 0.60506 5.48397 2.71071 5.38495C3.18454 5.36233 3.66033 5.39471 4.11544 5.42568C4.3154 5.43929 4.51149 5.45263 4.70155 5.46091C4.59942 5.67408 4.49882 5.88453 4.39931 6.09272L4.39794 6.09557C3.97678 6.97665 3.57501 7.81715 3.15912 8.65145C3.10644 8.75726 2.91871 8.85086 2.79175 8.85221C2.11346 8.86559 1.43517 8.86414 0.745093 8.86265H0.744957C0.525434 8.86218 0.304651 8.86171 0.082363 8.86171Z" fill="white"/>
<path d="M20.6958 8.86171C21.3077 6.14324 19.1507 4.65242 16.1604 5.55315C16.2596 5.75773 16.358 5.96119 16.456 6.16371C16.8544 6.98717 17.2453 7.79504 17.6474 8.59854C17.7042 8.71114 17.8554 8.84814 17.9648 8.85086C18.6699 8.86548 19.3758 8.86402 20.0732 8.86257H20.0735C20.2818 8.86214 20.4893 8.86171 20.6958 8.86171Z" fill="white"/>
</svg>
