<svg width="23" height="20" viewBox="0 0 23 20" fill="none" xmlns="http://www.w3.org/2000/svg">
<path d="M0.796183 1.61387L21.7471 0.349351C21.8613 0.342459 21.9756 0.367937 22.077 0.422896C22.1783 0.477856 22.2627 0.560106 22.3206 0.660333C22.3784 0.760561 22.4075 0.874762 22.4044 0.990013C22.4013 1.10526 22.3662 1.21696 22.3031 1.31246L10.7315 18.8248C10.6666 18.9228 10.5749 18.9996 10.4673 19.046C10.3596 19.0925 10.2406 19.1067 10.1245 19.0868C10.0083 19.067 9.8998 19.0141 9.81194 18.9343C9.72409 18.8545 9.66056 18.7512 9.62893 18.6368L7.67832 11.5384C7.6468 11.4236 7.64875 11.3024 7.68394 11.1894C7.71913 11.0764 7.78606 10.9764 7.87671 10.9014L14.4526 5.46276C14.4918 5.43039 14.5222 5.3886 14.5412 5.34116C14.5602 5.29372 14.567 5.24213 14.5611 5.19105L14.543 5.11562C14.5184 5.05021 14.4727 4.99481 14.4133 4.95845C14.3538 4.92208 14.2841 4.90687 14.2156 4.91529L14.1463 4.93235L6.10446 7.92469C5.99427 7.96539 5.87439 7.97315 5.75915 7.94702C5.64391 7.92089 5.53818 7.86199 5.4546 7.77735L0.40728 2.66444C0.323682 2.57991 0.265726 2.47323 0.240334 2.35713C0.214941 2.24103 0.223184 2.12043 0.264079 2.00972C0.304974 1.89901 0.376792 1.80288 0.470958 1.73279C0.565124 1.66271 0.677659 1.62164 0.795124 1.61448L0.796183 1.61387Z" fill="#121132"/>
</svg>
