<svg width="50" height="40" viewBox="0 0 50 40" fill="none" xmlns="http://www.w3.org/2000/svg">
<path d="M0.784536 22.1835C0.217923 21.5846 -0.0417722 20.7841 0.005449 20.0005C0.00183467 19.9403 0 19.8796 0 19.8184C0 19.4181 0.0785911 19.0372 0.220353 18.6921C0.33024 18.4239 0.481226 18.1701 0.673312 17.9413C0.748305 17.8519 0.828571 17.7675 0.913596 17.6887C1.11257 17.5041 1.33124 17.356 1.56183 17.2442C1.62195 17.2151 1.68327 17.1882 1.74568 17.1636L17.1995 0.829239C18.2456 -0.276412 19.9415 -0.276413 20.9876 0.829238C22.0336 1.93489 22.0336 3.72751 20.9876 4.83316L9.48875 16.9872H47.3214C48.8008 16.9872 50 18.2548 50 19.8184C50 21.382 48.8008 22.6496 47.3214 22.6496H9.14513L20.9876 35.1668C22.0336 36.2725 22.0336 38.0651 20.9876 39.1708C19.9415 40.2764 18.2456 40.2764 17.1995 39.1708L1.74542 22.8361C1.39493 22.6987 1.06617 22.4812 0.784536 22.1835Z" fill="#121132"/>
</svg>
