<svg width="1178" height="40" viewBox="0 0 1178 40" fill="none" xmlns="http://www.w3.org/2000/svg">
<rect y="15" width="2" height="10" fill="#F2F2F5"/>
<rect x="4" width="2" height="40" fill="#F2F2F5"/>
<rect x="8" y="5" width="2" height="30" fill="#F2F2F5"/>
<rect x="12" y="9" width="2" height="22" fill="#F2F2F5"/>
<rect x="16" y="5" width="2" height="30" fill="#F2F2F5"/>
<rect x="20" width="2" height="40" fill="#F2F2F5"/>
<rect x="24" y="11" width="2" height="18" fill="#F2F2F5"/>
<rect x="28" y="15" width="2" height="10" fill="#F2F2F5"/>
<rect x="32" y="7" width="2" height="26" fill="#F2F2F5"/>
<rect x="36" y="4" width="2" height="32" fill="#F2F2F5"/>
<rect x="40" y="8" width="2" height="24" fill="#F2F2F5"/>
<rect x="44" y="4" width="2" height="32" fill="#F2F2F5"/>
<rect x="48" y="11" width="2" height="18" fill="#F2F2F5"/>
<rect x="52" y="7" width="2" height="26" fill="#F2F2F5"/>
<rect x="56" y="13" width="2" height="14" fill="#F2F2F5"/>
<rect x="60" y="9" width="2" height="22" fill="#F2F2F5"/>
<rect x="64" y="5" width="2" height="30" fill="#F2F2F5"/>
<rect x="68" y="11" width="2" height="18" fill="#F2F2F5"/>
<rect x="72" y="4" width="2" height="32" fill="#F2F2F5"/>
<rect x="76" width="2" height="40" fill="#F2F2F5"/>
<rect x="80" y="8" width="2" height="24" fill="#F2F2F5"/>
<rect x="84" width="2" height="40" fill="#F2F2F5"/>
<rect x="88" y="11" width="2" height="18" fill="#F2F2F5"/>
<rect x="92" y="7" width="2" height="26" fill="#F2F2F5"/>
<rect x="96" y="12" width="2" height="16" fill="#F2F2F5"/>
<rect x="100" y="7" width="2" height="26" fill="#F2F2F5"/>
<rect x="104" y="11" width="2" height="18" fill="#F2F2F5"/>
<rect x="108" y="16" width="2" height="8" fill="#F2F2F5"/>
<rect x="112" y="5" width="2" height="30" fill="#F2F2F5"/>
<rect x="116" y="11" width="2" height="18" fill="#F2F2F5"/>
<rect x="120" y="3" width="2" height="34" fill="#F2F2F5"/>
<rect x="124" y="15" width="2" height="10" fill="#F2F2F5"/>
<rect x="128" y="8" width="2" height="24" fill="#F2F2F5"/>
<rect x="132" y="5" width="2" height="30" fill="#F2F2F5"/>
<rect x="136" y="15" width="2" height="10" fill="#F2F2F5"/>
<rect x="140" y="8" width="2" height="24" fill="#F2F2F5"/>
<rect x="144" y="11" width="2" height="18" fill="#F2F2F5"/>
<rect x="148" y="5" width="2" height="30" fill="#F2F2F5"/>
<rect x="152" y="12" width="2" height="16" fill="#F2F2F5"/>
<rect x="156" y="7" width="2" height="26" fill="#F2F2F5"/>
<rect x="160" y="8" width="2" height="24" fill="#F2F2F5"/>
<rect x="164" y="15" width="2" height="10" fill="#F2F2F5"/>
<rect x="168" y="8" width="2" height="24" fill="#F2F2F5"/>
<rect x="172" y="5" width="2" height="30" fill="#F2F2F5"/>
<rect x="176" y="15" width="2" height="10" fill="#F2F2F5"/>
<rect x="180" y="8" width="2" height="24" fill="#F2F2F5"/>
<rect x="184" y="11" width="2" height="18" fill="#F2F2F5"/>
<rect x="188" y="5" width="2" height="30" fill="#F2F2F5"/>
<rect x="192" y="12" width="2" height="16" fill="#F2F2F5"/>
<rect x="196" y="7" width="2" height="26" fill="#F2F2F5"/>
<rect x="200" y="8" width="2" height="24" fill="#F2F2F5"/>
<rect x="204" y="15" width="2" height="10" fill="#F2F2F5"/>
<rect x="208" y="8" width="2" height="24" fill="#F2F2F5"/>
<rect x="212" y="5" width="2" height="30" fill="#F2F2F5"/>
<rect x="216" y="15" width="2" height="10" fill="#F2F2F5"/>
<rect x="220" y="8" width="2" height="24" fill="#F2F2F5"/>
<rect x="224" y="11" width="2" height="18" fill="#F2F2F5"/>
<rect x="228" y="5" width="2" height="30" fill="#F2F2F5"/>
<rect x="232" y="12" width="2" height="16" fill="#F2F2F5"/>
<rect x="236" y="7" width="2" height="26" fill="#F2F2F5"/>
<rect x="240" y="8" width="2" height="24" fill="#F2F2F5"/>
<rect x="244" y="15" width="2" height="10" fill="#F2F2F5"/>
<rect x="248" y="8" width="2" height="24" fill="#F2F2F5"/>
<rect x="252" y="5" width="2" height="30" fill="#F2F2F5"/>
<rect x="256" y="15" width="2" height="10" fill="#F2F2F5"/>
<rect x="260" y="8" width="2" height="24" fill="#F2F2F5"/>
<rect x="264" y="11" width="2" height="18" fill="#F2F2F5"/>
<rect x="268" y="5" width="2" height="30" fill="#F2F2F5"/>
<rect x="272" y="12" width="2" height="16" fill="#F2F2F5"/>
<rect x="276" y="7" width="2" height="26" fill="#F2F2F5"/>
<rect x="280" y="8" width="2" height="24" fill="#F2F2F5"/>
<rect x="284" y="15" width="2" height="10" fill="#F2F2F5"/>
<rect x="288" y="8" width="2" height="24" fill="#F2F2F5"/>
<rect x="292" y="5" width="2" height="30" fill="#F2F2F5"/>
<rect x="296" y="15" width="2" height="10" fill="#F2F2F5"/>
<rect x="300" y="8" width="2" height="24" fill="#F2F2F5"/>
<rect x="304" y="11" width="2" height="18" fill="#F2F2F5"/>
<rect x="308" y="5" width="2" height="30" fill="#F2F2F5"/>
<rect x="312" y="12" width="2" height="16" fill="#F2F2F5"/>
<rect x="316" y="7" width="2" height="26" fill="#F2F2F5"/>
<rect x="320" y="8" width="2" height="24" fill="#F2F2F5"/>
<rect x="324" y="15" width="2" height="10" fill="#F2F2F5"/>
<rect x="328" y="8" width="2" height="24" fill="#F2F2F5"/>
<rect x="332" y="5" width="2" height="30" fill="#F2F2F5"/>
<rect x="336" y="15" width="2" height="10" fill="#F2F2F5"/>
<rect x="340" y="8" width="2" height="24" fill="#F2F2F5"/>
<rect x="344" y="11" width="2" height="18" fill="#F2F2F5"/>
<rect x="348" y="5" width="2" height="30" fill="#F2F2F5"/>
<rect x="352" y="12" width="2" height="16" fill="#F2F2F5"/>
<rect x="356" y="7" width="2" height="26" fill="#F2F2F5"/>
<rect x="360" y="8" width="2" height="24" fill="#F2F2F5"/>
<rect x="364" y="15" width="2" height="10" fill="#F2F2F5"/>
<rect x="368" y="8" width="2" height="24" fill="#F2F2F5"/>
<rect x="372" y="5" width="2" height="30" fill="#F2F2F5"/>
<rect x="376" y="15" width="2" height="10" fill="#F2F2F5"/>
<rect x="380" y="8" width="2" height="24" fill="#F2F2F5"/>
<rect x="384" y="11" width="2" height="18" fill="#F2F2F5"/>
<rect x="388" y="5" width="2" height="30" fill="#F2F2F5"/>
<rect x="392" y="12" width="2" height="16" fill="#F2F2F5"/>
<rect x="396" y="7" width="2" height="26" fill="#F2F2F5"/>
<rect x="400" y="8" width="2" height="24" fill="#F2F2F5"/>
<rect x="404" y="15" width="2" height="10" fill="#F2F2F5"/>
<rect x="408" y="8" width="2" height="24" fill="#F2F2F5"/>
<rect x="412" y="5" width="2" height="30" fill="#F2F2F5"/>
<rect x="416" y="15" width="2" height="10" fill="#F2F2F5"/>
<rect x="420" y="8" width="2" height="24" fill="#F2F2F5"/>
<rect x="424" y="11" width="2" height="18" fill="#F2F2F5"/>
<rect x="428" y="5" width="2" height="30" fill="#F2F2F5"/>
<rect x="432" y="12" width="2" height="16" fill="#F2F2F5"/>
<rect x="436" y="7" width="2" height="26" fill="#F2F2F5"/>
<rect x="440" y="8" width="2" height="24" fill="#F2F2F5"/>
<rect x="444" y="16" width="2" height="8" fill="#F2F2F5"/>
<rect x="448" y="8" width="2" height="24" fill="#F2F2F5"/>
<rect x="452" y="12" width="2" height="16" fill="#F2F2F5"/>
<rect x="456" y="9" width="2" height="22" fill="#F2F2F5"/>
<rect x="460" y="15" width="2" height="10" fill="#F2F2F5"/>
<rect x="464" y="8" width="2" height="24" fill="#F2F2F5"/>
<rect x="468" y="16" width="2" height="8" fill="#F2F2F5"/>
<rect x="472" y="15" width="2" height="10" fill="#F2F2F5"/>
<rect x="476" width="2" height="40" fill="#F2F2F5"/>
<rect x="480" y="5" width="2" height="30" fill="#F2F2F5"/>
<rect x="484" y="9" width="2" height="22" fill="#F2F2F5"/>
<rect x="488" y="5" width="2" height="30" fill="#F2F2F5"/>
<rect x="492" width="2" height="40" fill="#F2F2F5"/>
<rect x="496" y="11" width="2" height="18" fill="#F2F2F5"/>
<rect x="500" y="15" width="2" height="10" fill="#F2F2F5"/>
<rect x="504" y="7" width="2" height="26" fill="#F2F2F5"/>
<rect x="508" y="4" width="2" height="32" fill="#F2F2F5"/>
<rect x="512" y="8" width="2" height="24" fill="#F2F2F5"/>
<rect x="516" y="4" width="2" height="32" fill="#F2F2F5"/>
<rect x="520" y="11" width="2" height="18" fill="#F2F2F5"/>
<rect x="524" y="7" width="2" height="26" fill="#F2F2F5"/>
<rect x="528" y="13" width="2" height="14" fill="#F2F2F5"/>
<rect x="532" y="9" width="2" height="22" fill="#F2F2F5"/>
<rect x="536" y="5" width="2" height="30" fill="#F2F2F5"/>
<rect x="540" y="11" width="2" height="18" fill="#F2F2F5"/>
<rect x="544" y="4" width="2" height="32" fill="#F2F2F5"/>
<rect x="548" width="2" height="40" fill="#F2F2F5"/>
<rect x="552" y="8" width="2" height="24" fill="#F2F2F5"/>
<rect x="556" width="2" height="40" fill="#F2F2F5"/>
<rect x="560" y="11" width="2" height="18" fill="#F2F2F5"/>
<rect x="564" y="7" width="2" height="26" fill="#F2F2F5"/>
<rect x="568" y="12" width="2" height="16" fill="#F2F2F5"/>
<rect x="572" y="7" width="2" height="26" fill="#F2F2F5"/>
<rect x="576" y="11" width="2" height="18" fill="#F2F2F5"/>
<rect x="580" y="16" width="2" height="8" fill="#F2F2F5"/>
<rect x="584" y="5" width="2" height="30" fill="#F2F2F5"/>
<rect x="588" y="11" width="2" height="18" fill="#F2F2F5"/>
<rect x="592" y="3" width="2" height="34" fill="#F2F2F5"/>
<rect x="596" y="15" width="2" height="10" fill="#F2F2F5"/>
<rect x="600" y="8" width="2" height="24" fill="#F2F2F5"/>
<rect x="604" y="5" width="2" height="30" fill="#F2F2F5"/>
<rect x="608" y="15" width="2" height="10" fill="#F2F2F5"/>
<rect x="612" y="8" width="2" height="24" fill="#F2F2F5"/>
<rect x="616" y="11" width="2" height="18" fill="#F2F2F5"/>
<rect x="620" y="5" width="2" height="30" fill="#F2F2F5"/>
<rect x="624" y="12" width="2" height="16" fill="#F2F2F5"/>
<rect x="628" y="7" width="2" height="26" fill="#F2F2F5"/>
<rect x="632" y="8" width="2" height="24" fill="#F2F2F5"/>
<rect x="636" y="15" width="2" height="10" fill="#F2F2F5"/>
<rect x="640" y="8" width="2" height="24" fill="#F2F2F5"/>
<rect x="644" y="5" width="2" height="30" fill="#F2F2F5"/>
<rect x="648" y="15" width="2" height="10" fill="#F2F2F5"/>
<rect x="652" y="8" width="2" height="24" fill="#F2F2F5"/>
<rect x="656" y="11" width="2" height="18" fill="#F2F2F5"/>
<rect x="660" y="5" width="2" height="30" fill="#F2F2F5"/>
<rect x="664" y="12" width="2" height="16" fill="#F2F2F5"/>
<rect x="668" y="7" width="2" height="26" fill="#F2F2F5"/>
<rect x="672" y="8" width="2" height="24" fill="#F2F2F5"/>
<rect x="676" y="15" width="2" height="10" fill="#F2F2F5"/>
<rect x="680" y="8" width="2" height="24" fill="#F2F2F5"/>
<rect x="684" y="5" width="2" height="30" fill="#F2F2F5"/>
<rect x="688" y="15" width="2" height="10" fill="#F2F2F5"/>
<rect x="692" y="8" width="2" height="24" fill="#F2F2F5"/>
<rect x="696" y="11" width="2" height="18" fill="#F2F2F5"/>
<rect x="700" y="5" width="2" height="30" fill="#F2F2F5"/>
<rect x="704" y="12" width="2" height="16" fill="#F2F2F5"/>
<rect x="708" y="7" width="2" height="26" fill="#F2F2F5"/>
<rect x="712" y="8" width="2" height="24" fill="#F2F2F5"/>
<rect x="716" y="15" width="2" height="10" fill="#F2F2F5"/>
<rect x="720" y="8" width="2" height="24" fill="#F2F2F5"/>
<rect x="724" y="5" width="2" height="30" fill="#F2F2F5"/>
<rect x="728" y="15" width="2" height="10" fill="#F2F2F5"/>
<rect x="732" y="8" width="2" height="24" fill="#F2F2F5"/>
<rect x="736" y="11" width="2" height="18" fill="#F2F2F5"/>
<rect x="740" y="5" width="2" height="30" fill="#F2F2F5"/>
<rect x="744" y="12" width="2" height="16" fill="#F2F2F5"/>
<rect x="748" y="7" width="2" height="26" fill="#F2F2F5"/>
<rect x="752" y="8" width="2" height="24" fill="#F2F2F5"/>
<rect x="756" y="15" width="2" height="10" fill="#F2F2F5"/>
<rect x="760" y="8" width="2" height="24" fill="#F2F2F5"/>
<rect x="764" y="5" width="2" height="30" fill="#F2F2F5"/>
<rect x="768" y="15" width="2" height="10" fill="#F2F2F5"/>
<rect x="772" y="8" width="2" height="24" fill="#F2F2F5"/>
<rect x="776" y="11" width="2" height="18" fill="#F2F2F5"/>
<rect x="780" y="5" width="2" height="30" fill="#F2F2F5"/>
<rect x="784" y="12" width="2" height="16" fill="#F2F2F5"/>
<rect x="788" y="7" width="2" height="26" fill="#F2F2F5"/>
<rect x="792" y="8" width="2" height="24" fill="#F2F2F5"/>
<rect x="796" y="15" width="2" height="10" fill="#F2F2F5"/>
<rect x="800" y="8" width="2" height="24" fill="#F2F2F5"/>
<rect x="804" y="5" width="2" height="30" fill="#F2F2F5"/>
<rect x="808" y="15" width="2" height="10" fill="#F2F2F5"/>
<rect x="812" y="8" width="2" height="24" fill="#F2F2F5"/>
<rect x="816" y="11" width="2" height="18" fill="#F2F2F5"/>
<rect x="820" y="5" width="2" height="30" fill="#F2F2F5"/>
<rect x="824" y="12" width="2" height="16" fill="#F2F2F5"/>
<rect x="828" y="7" width="2" height="26" fill="#F2F2F5"/>
<rect x="832" y="8" width="2" height="24" fill="#F2F2F5"/>
<rect x="836" y="15" width="2" height="10" fill="#F2F2F5"/>
<rect x="840" y="8" width="2" height="24" fill="#F2F2F5"/>
<rect x="844" y="5" width="2" height="30" fill="#F2F2F5"/>
<rect x="848" y="15" width="2" height="10" fill="#F2F2F5"/>
<rect x="852" y="8" width="2" height="24" fill="#F2F2F5"/>
<rect x="856" y="11" width="2" height="18" fill="#F2F2F5"/>
<rect x="860" y="5" width="2" height="30" fill="#F2F2F5"/>
<rect x="864" y="12" width="2" height="16" fill="#F2F2F5"/>
<rect x="868" y="7" width="2" height="26" fill="#F2F2F5"/>
<rect x="872" y="8" width="2" height="24" fill="#F2F2F5"/>
<rect x="876" y="15" width="2" height="10" fill="#F2F2F5"/>
<rect x="880" y="8" width="2" height="24" fill="#F2F2F5"/>
<rect x="884" y="5" width="2" height="30" fill="#F2F2F5"/>
<rect x="888" y="15" width="2" height="10" fill="#F2F2F5"/>
<rect x="892" y="8" width="2" height="24" fill="#F2F2F5"/>
<rect x="896" y="11" width="2" height="18" fill="#F2F2F5"/>
<rect x="900" y="5" width="2" height="30" fill="#F2F2F5"/>
<rect x="904" y="12" width="2" height="16" fill="#F2F2F5"/>
<rect x="908" y="7" width="2" height="26" fill="#F2F2F5"/>
<rect x="912" y="8" width="2" height="24" fill="#F2F2F5"/>
<rect x="916" y="16" width="2" height="8" fill="#F2F2F5"/>
<rect x="920" y="8" width="2" height="24" fill="#F2F2F5"/>
<rect x="924" y="12" width="2" height="16" fill="#F2F2F5"/>
<rect x="928" y="9" width="2" height="22" fill="#F2F2F5"/>
<rect x="932" y="15" width="2" height="10" fill="#F2F2F5"/>
<rect x="936" y="8" width="2" height="24" fill="#F2F2F5"/>
<rect x="940" y="16" width="2" height="8" fill="#F2F2F5"/>
<rect x="944" y="15" width="2" height="10" fill="#F2F2F5"/>
<rect x="948" width="2" height="40" fill="#F2F2F5"/>
<rect x="952" y="5" width="2" height="30" fill="#F2F2F5"/>
<rect x="956" y="9" width="2" height="22" fill="#F2F2F5"/>
<rect x="960" y="5" width="2" height="30" fill="#F2F2F5"/>
<rect x="964" width="2" height="40" fill="#F2F2F5"/>
<rect x="968" y="11" width="2" height="18" fill="#F2F2F5"/>
<rect x="972" y="15" width="2" height="10" fill="#F2F2F5"/>
<rect x="976" y="7" width="2" height="26" fill="#F2F2F5"/>
<rect x="980" y="4" width="2" height="32" fill="#F2F2F5"/>
<rect x="984" y="8" width="2" height="24" fill="#F2F2F5"/>
<rect x="988" y="4" width="2" height="32" fill="#F2F2F5"/>
<rect x="992" y="11" width="2" height="18" fill="#F2F2F5"/>
<rect x="996" y="7" width="2" height="26" fill="#F2F2F5"/>
<rect x="1000" y="13" width="2" height="14" fill="#F2F2F5"/>
<rect x="1004" y="9" width="2" height="22" fill="#F2F2F5"/>
<rect x="1008" y="5" width="2" height="30" fill="#F2F2F5"/>
<rect x="1012" y="11" width="2" height="18" fill="#F2F2F5"/>
<rect x="1016" y="4" width="2" height="32" fill="#F2F2F5"/>
<rect x="1020" width="2" height="40" fill="#F2F2F5"/>
<rect x="1024" y="8" width="2" height="24" fill="#F2F2F5"/>
<rect x="1028" width="2" height="40" fill="#F2F2F5"/>
<rect x="1032" y="11" width="2" height="18" fill="#F2F2F5"/>
<rect x="1036" y="7" width="2" height="26" fill="#F2F2F5"/>
<rect x="1040" y="12" width="2" height="16" fill="#F2F2F5"/>
<rect x="1044" y="7" width="2" height="26" fill="#F2F2F5"/>
<rect x="1048" y="11" width="2" height="18" fill="#F2F2F5"/>
<rect x="1052" y="16" width="2" height="8" fill="#F2F2F5"/>
<rect x="1056" y="5" width="2" height="30" fill="#F2F2F5"/>
<rect x="1060" y="11" width="2" height="18" fill="#F2F2F5"/>
<rect x="1064" y="3" width="2" height="34" fill="#F2F2F5"/>
<rect x="1068" y="15" width="2" height="10" fill="#F2F2F5"/>
<rect x="1072" y="8" width="2" height="24" fill="#F2F2F5"/>
<rect x="1076" y="5" width="2" height="30" fill="#F2F2F5"/>
<rect x="1080" y="15" width="2" height="10" fill="#F2F2F5"/>
<rect x="1084" y="8" width="2" height="24" fill="#F2F2F5"/>
<rect x="1088" y="11" width="2" height="18" fill="#F2F2F5"/>
<rect x="1092" y="5" width="2" height="30" fill="#F2F2F5"/>
<rect x="1096" y="12" width="2" height="16" fill="#F2F2F5"/>
<rect x="1100" y="7" width="2" height="26" fill="#F2F2F5"/>
<rect x="1104" y="8" width="2" height="24" fill="#F2F2F5"/>
<rect x="1108" y="15" width="2" height="10" fill="#F2F2F5"/>
<rect x="1112" y="8" width="2" height="24" fill="#F2F2F5"/>
<rect x="1116" y="5" width="2" height="30" fill="#F2F2F5"/>
<rect x="1120" y="15" width="2" height="10" fill="#F2F2F5"/>
<rect x="1124" y="8" width="2" height="24" fill="#F2F2F5"/>
<rect x="1128" y="7" width="2" height="26" fill="#F2F2F5"/>
<rect x="1132" y="8" width="2" height="24" fill="#F2F2F5"/>
<rect x="1136" y="15" width="2" height="10" fill="#F2F2F5"/>
<rect x="1140" y="8" width="2" height="24" fill="#F2F2F5"/>
<rect x="1144" y="5" width="2" height="30" fill="#F2F2F5"/>
<rect x="1148" y="15" width="2" height="10" fill="#F2F2F5"/>
<rect x="1152" y="8" width="2" height="24" fill="#F2F2F5"/>
<rect x="1156" y="11" width="2" height="18" fill="#F2F2F5"/>
<rect x="1160" y="5" width="2" height="30" fill="#F2F2F5"/>
<rect x="1164" y="12" width="2" height="16" fill="#F2F2F5"/>
<rect x="1168" y="7" width="2" height="26" fill="#F2F2F5"/>
<rect x="1172" y="5" width="2" height="30" fill="#F2F2F5"/>
<rect x="1176" y="7" width="2" height="26" fill="#F2F2F5"/>
</svg>
