<svg width="31" height="15" viewBox="0 0 31 15" fill="none" xmlns="http://www.w3.org/2000/svg">
<path d="M13.9555 9.01848V7.50737C13.9555 6.88517 13.9555 6.3518 13.9259 5.95181C13.8667 4.18885 13.3037 2.84071 12.2074 1.90738C11.1259 0.974043 9.59999 0.499969 7.62962 0.499969H0V7.52218H3.74814V3.52219H7.5111C8.2074 3.46293 8.88888 3.68515 9.42221 4.12959C9.89629 4.64811 10.1481 5.32959 10.1185 6.02589C10.163 6.39625 10.163 6.89994 10.163 7.50733C10.163 8.11474 10.1481 8.61848 10.1185 9.00366C10.163 9.69996 9.92591 10.3666 9.48147 10.9C8.96295 11.3296 8.29629 11.5518 7.62962 11.4926H1.91111V14.4851H7.74814C11.7481 14.4851 13.8222 12.6629 13.9555 9.01848Z" fill="#E93D45"/>
<path d="M30.0414 14.5V7.50745H26.2636V11.4926H22.3969C21.7303 11.5519 21.0636 11.3445 20.5451 10.9C20.1006 10.3667 19.8636 9.68522 19.908 8.98893C19.8636 8.60376 19.8636 8.10008 19.8636 7.49271C19.8636 6.87049 19.8784 6.38152 19.908 6.01115C19.8784 5.31486 20.1155 4.63338 20.5895 4.11486C21.1229 3.67041 21.8043 3.46301 22.5006 3.50745H28.1599V0.514862H22.4117C20.4414 0.514862 18.9155 0.988936 17.8043 1.92227C16.6636 2.9593 16.0266 4.44078 16.0858 5.98152V9.03337C16.2192 12.6778 18.2932 14.5 22.2932 14.5H30.0414Z" fill="#E93D45"/>
</svg>
