<svg width="40" height="40" viewBox="0 0 40 40" fill="none" xmlns="http://www.w3.org/2000/svg">
<path d="M20.1128 12.0013C21.7598 12.0013 23.095 10.6583 23.095 9.00157C23.095 7.34484 21.7598 6.00179 20.1128 6.00179C18.4658 6.00179 17.1306 7.34484 17.1306 9.00157C17.1306 10.6583 18.4658 12.0013 20.1128 12.0013Z" fill="#121132"/>
<path d="M25.3943 11.6725C25.655 11.1404 26.0667 10.6981 26.5773 10.4014C26.9167 10.2042 27.2913 10.0763 27.6799 10.0248C28.0685 9.9734 28.4633 9.9995 28.8418 10.1017C29.2203 10.2038 29.5751 10.38 29.8859 10.6202C30.1967 10.8603 30.4573 11.1598 30.653 11.5014C30.9474 12.0153 31.0837 12.6055 31.0447 13.1974C31.0057 13.7892 30.7931 14.3562 30.4339 14.8265C30.0746 15.2969 29.5848 15.6496 29.0263 15.84C28.4679 16.0304 27.8658 16.05 27.2963 15.8963C26.7267 15.7426 26.2153 15.4225 25.8265 14.9764C25.4378 14.5304 25.1893 13.9785 25.1123 13.3904C25.0354 12.8023 25.1335 12.2045 25.3943 11.6725Z" fill="#121132"/>
<path d="M11.9684 10.0074C12.5568 9.96819 13.1436 10.1053 13.6545 10.4014C13.9941 10.5982 14.2917 10.8604 14.5305 11.1731C14.7693 11.4857 14.9444 11.8426 15.046 12.2233C15.1475 12.6041 15.1735 13.0012 15.1224 13.3921C15.0712 13.7829 14.944 14.1598 14.748 14.5011C14.453 15.0148 14.0133 15.4289 13.4844 15.6912C12.9555 15.9535 12.3612 16.0522 11.7765 15.9748C11.1919 15.8974 10.6432 15.6474 10.1998 15.2563C9.75636 14.8653 9.43814 14.3509 9.28534 13.778C9.13253 13.2051 9.15201 12.5995 9.3413 12.0377C9.53059 11.4759 9.8812 10.9832 10.3488 10.6218C10.8164 10.2605 11.38 10.0467 11.9684 10.0074Z" fill="#121132"/>
<path d="M7.41296 19.8735C7.63597 19.3238 8.01611 18.8531 8.50525 18.5208C8.82832 18.2982 9.19207 18.1422 9.57546 18.0619C9.95884 17.9816 10.3543 17.9786 10.7388 18.053C11.1234 18.1273 11.4895 18.2777 11.8159 18.4953C12.1423 18.7129 12.4226 18.9935 12.6406 19.3208C12.9723 19.8118 13.1518 20.3908 13.1562 20.9845C13.1606 21.5781 12.9898 22.1598 12.6654 22.6557C12.341 23.1517 11.8776 23.5397 11.3338 23.7706C10.7901 24.0015 10.1905 24.0649 9.61089 23.9527C9.03131 23.8406 8.49783 23.558 8.078 23.1408C7.65817 22.7235 7.37088 22.1903 7.25249 21.6087C7.1341 21.027 7.18995 20.4232 7.41296 19.8735Z" fill="#121132"/>
<path fill-rule="evenodd" clip-rule="evenodd" d="M35.1005 6.16178C33.1071 4.17078 30.7384 2.60033 28.1335 1.54261C25.5286 0.484882 22.7399 -0.0388185 19.931 0.00224025C14.6582 -0.0110196 9.59608 2.08324 5.8583 5.82431C2.12051 9.56539 0.0132443 14.6468 6.22173e-05 19.9508C-0.0131199 25.2547 2.06887 30.3467 5.78801 34.1065C9.50715 37.8663 14.5588 39.986 19.8316 39.9993C20.9678 40.0187 22.0783 39.6581 22.9887 38.974C23.8991 38.2898 24.5578 37.321 24.8616 36.2195C25.0552 35.4241 25.0532 34.5932 24.8558 33.7987C24.6583 33.0042 24.2713 32.2701 23.7284 31.6599C23.6028 31.5162 23.5209 31.3392 23.4923 31.1501C23.4638 30.9609 23.4897 30.7675 23.5672 30.5927C23.6446 30.418 23.7703 30.2693 23.9292 30.1642C24.0882 30.0591 24.2738 30.0021 24.464 30H27.7444C30.8318 30.0145 33.8105 28.8536 36.0821 26.7503C38.3538 24.647 39.7503 21.7571 39.9913 18.6609C40.0652 16.3522 39.6696 14.0528 38.8285 11.9035C37.9875 9.75416 36.7189 7.80032 35.1005 6.16178ZM27.8239 26.0003H24.5435C23.5855 25.9948 22.6465 26.2691 21.8403 26.7899C21.0342 27.3106 20.3957 28.0555 20.0021 28.9341C19.6085 29.8127 19.4768 30.7873 19.623 31.7397C19.7692 32.6921 20.187 33.5814 20.8257 34.2997C20.9501 34.4259 21.038 34.5838 21.08 34.7564C21.122 34.929 21.1166 35.1099 21.0643 35.2796C20.9649 35.6996 20.5076 35.9596 19.8913 35.9996C17.6334 35.9704 15.4076 35.4581 13.3618 34.4965C11.3161 33.5349 9.49737 32.1462 8.02661 30.4227C6.55584 28.6992 5.46677 26.6805 4.83183 24.5008C4.19689 22.321 4.03063 20.0303 4.34412 17.7809C4.91107 14.0011 6.78863 10.5447 9.64474 8.02311C12.5008 5.50151 16.1515 4.07714 19.9509 4.00194H20.11C22.3582 3.97233 24.5896 4.39593 26.6725 5.24774C28.7554 6.09955 30.6476 7.36232 32.2376 8.96157C33.4782 10.2103 34.4529 11.7001 35.1023 13.3401C35.7518 14.9802 36.0623 16.7361 36.015 18.5009C35.8091 20.5468 34.859 22.4442 33.3471 23.8284C31.8352 25.2126 29.8682 25.9861 27.8239 26.0003Z" fill="#121132"/>
</svg>
