<svg width="20" height="20" viewBox="0 0 20 20" fill="none" xmlns="http://www.w3.org/2000/svg">
<path d="M10 18.75C7.67936 18.75 5.45376 17.8281 3.81282 16.1872C2.17187 14.5462 1.25 12.3206 1.25 10C1.25 7.67936 2.17187 5.45376 3.81282 3.81282C5.45376 2.17187 7.67936 1.25 10 1.25C12.3206 1.25 14.5462 2.17187 16.1872 3.81282C17.8281 5.45376 18.75 7.67936 18.75 10C18.75 12.3206 17.8281 14.5462 16.1872 16.1872C14.5462 17.8281 12.3206 18.75 10 18.75ZM10 20C12.6522 20 15.1957 18.9464 17.0711 17.0711C18.9464 15.1957 20 12.6522 20 10C20 7.34784 18.9464 4.8043 17.0711 2.92893C15.1957 1.05357 12.6522 0 10 0C7.34784 0 4.8043 1.05357 2.92893 2.92893C1.05357 4.8043 0 7.34784 0 10C0 12.6522 1.05357 15.1957 2.92893 17.0711C4.8043 18.9464 7.34784 20 10 20Z" fill="#121132"/>
<path d="M5.35545 11.9588C5.499 11.8759 5.66959 11.8534 5.8297 11.8963C5.98981 11.9392 6.12632 12.044 6.2092 12.1875C6.59309 12.8529 7.14552 13.4055 7.81086 13.7895C8.47621 14.1735 9.23098 14.3755 9.9992 14.375C10.7674 14.3755 11.5222 14.1735 12.1875 13.7895C12.8529 13.4055 13.4053 12.8529 13.7892 12.1875C13.8299 12.1158 13.8844 12.053 13.9496 12.0025C14.0147 11.952 14.0892 11.9148 14.1688 11.8932C14.2483 11.8716 14.3313 11.866 14.4131 11.8766C14.4948 11.8872 14.5736 11.9139 14.645 11.9551C14.7164 11.9964 14.7789 12.0513 14.829 12.1168C14.8791 12.1822 14.9157 12.257 14.9368 12.3367C14.9578 12.4163 14.9629 12.4994 14.9518 12.5811C14.9406 12.6627 14.9134 12.7414 14.8717 12.8125C14.3781 13.6679 13.6679 14.3783 12.8125 14.872C11.9572 15.3657 10.9868 15.6254 9.9992 15.625C9.01157 15.6254 8.04124 15.3657 7.18588 14.872C6.33052 14.3783 5.6203 13.6679 5.1267 12.8125C5.04383 12.669 5.02137 12.4984 5.06426 12.3383C5.10716 12.1781 5.21191 12.0416 5.35545 11.9588ZM8.7492 8.125C8.7492 9.16 8.1892 10 7.4992 10C6.8092 10 6.2492 9.16 6.2492 8.125C6.2492 7.09 6.8092 6.25 7.4992 6.25C8.1892 6.25 8.7492 7.09 8.7492 8.125ZM13.7492 8.125C13.7492 9.16 13.1892 10 12.4992 10C11.8092 10 11.2492 9.16 11.2492 8.125C11.2492 7.09 11.8092 6.25 12.4992 6.25C13.1892 6.25 13.7492 7.09 13.7492 8.125Z" fill="#121132"/>
</svg>
