<svg width="30" height="40" viewBox="0 0 30 40" fill="none" xmlns="http://www.w3.org/2000/svg">
<path d="M2.12718 0C7.80417 0 13.4822 0 19.1592 0C19.1571 0.0250501 19.1582 0.0501003 19.1623 0.0741067C19.1352 0.211883 19.0851 0.348615 19.0851 0.48639C19.0809 3.50389 19.0872 6.52139 19.0747 9.53993C19.0736 9.89898 19.1874 10.0086 19.5443 10.0075C22.5618 9.99605 25.5793 10.0023 28.5979 9.9971C28.7346 9.9971 28.8713 9.94491 29.0081 9.91673C29.0352 10.0879 29.0864 10.2601 29.0864 10.4313C29.0905 19.0381 29.0916 27.6449 29.0864 36.2507C29.0864 36.7527 29.0498 37.2569 29.0008 37.7579C28.888 38.9071 27.6721 39.9999 26.5219 39.9999C18.5528 39.9999 10.5847 40.002 2.61566 39.9894C2.2827 39.9884 1.92052 39.908 1.62096 39.7619C0.523972 39.2306 -0.00208132 38.3549 6.18795e-06 37.1034C0.0167063 29.0957 0.00731248 21.088 0.00835624 13.0804C0.00835624 9.55141 0.00939999 6.02352 0.01775 2.49458C0.0198376 1.80152 0.312089 1.20867 0.835011 0.781773C1.22224 0.466559 1.69298 0.256764 2.12718 0ZM18.1551 28.6062C18.1551 27.8693 18.1551 27.1335 18.1551 26.3966C18.0173 26.3747 17.8795 26.3319 17.7428 26.3319C14.0834 26.3287 10.425 26.3277 6.76563 26.3329C6.63099 26.3329 6.49739 26.3862 6.36274 26.4143C6.36274 27.1397 6.36274 27.8641 6.36274 28.5895C6.49634 28.6177 6.62995 28.6699 6.76355 28.6709C10.424 28.6751 14.0834 28.6751 17.7439 28.672C17.8816 28.6709 18.0184 28.6281 18.1551 28.6062ZM6.42954 15.4758C6.40136 15.5666 6.35126 15.6574 6.34918 15.7492C6.34187 16.316 6.34187 16.8828 6.34918 17.4485C6.35022 17.5393 6.40345 17.629 6.43163 17.7198C6.58715 17.724 6.74371 17.7313 6.89923 17.7313C11.5826 17.7324 16.2659 17.7324 20.9482 17.7313C21.5202 17.7313 22.0921 17.724 22.6641 17.7198C22.6934 17.604 22.7455 17.4881 22.7476 17.3712C22.757 16.8567 22.757 16.341 22.7476 15.8265C22.7455 15.7096 22.6954 15.5927 22.6673 15.4758L22.6756 15.458C22.5232 15.4361 22.3708 15.3944 22.2195 15.3944C17.1051 15.3912 11.9896 15.3912 6.87523 15.3944C6.72284 15.3944 6.57045 15.4361 6.41911 15.458L6.42954 15.4758ZM22.7414 20.9492C22.6067 20.92 22.4721 20.8636 22.3374 20.8636C17.1458 20.8595 11.9541 20.8595 6.76146 20.8636C6.62681 20.8636 6.49217 20.919 6.35753 20.9492C6.35335 21.5609 6.37005 22.1725 6.33769 22.7821C6.31891 23.1411 6.45251 23.2121 6.78338 23.211C9.39799 23.1985 12.0126 23.2037 14.6272 23.2037C17.2032 23.2037 19.7781 23.1996 22.3541 23.209C22.6474 23.21 22.7748 23.1453 22.7602 22.8207C22.732 22.1986 22.7445 21.5734 22.7414 20.9492Z" fill="#427EC0"/>
<path d="M19.1619 0.0741272C19.2485 0.152409 19.3383 0.225472 19.4197 0.307929C22.5468 3.43398 25.6729 6.56107 28.7989 9.68817C28.872 9.76123 28.9388 9.84055 29.0077 9.91675C28.8709 9.94493 28.7342 9.99607 28.5975 9.99712C25.58 10.0013 22.5625 9.99607 19.5439 10.0076C19.187 10.0086 19.0732 9.899 19.0742 9.53995C19.0857 6.52245 19.0794 3.50495 19.0847 0.486411C19.0847 0.349679 19.1348 0.211903 19.1619 0.0741272Z" fill="#3769B2"/>
<path d="M22.7413 20.9492C22.7455 21.5734 22.7319 22.1986 22.7601 22.8217C22.7747 23.1463 22.6474 23.2111 22.3541 23.21C19.7781 23.2006 17.2032 23.2048 14.6272 23.2048C12.0126 23.2048 9.39796 23.1996 6.78335 23.2121C6.45248 23.2142 6.31888 23.1422 6.33766 22.7831C6.37002 22.1736 6.35332 21.5609 6.3575 20.9503L6.39403 20.9492L6.43056 20.9513C6.42847 21.4972 6.4243 22.0431 6.4243 22.59C6.4243 23.1255 6.42534 23.1265 6.96183 23.1265C11.1483 23.1265 15.3359 23.1265 19.5224 23.1265C20.4461 23.1265 21.3688 23.1192 22.2915 23.1307C22.5775 23.1349 22.686 23.0336 22.6777 22.7455C22.661 22.1475 22.6693 21.5494 22.6662 20.9513L22.7027 20.9492H22.7413Z" fill="#B9DCF4"/>
<path d="M6.42853 20.9513L6.392 20.9492L6.35547 20.9503C6.49011 20.9211 6.62476 20.8647 6.7594 20.8647C11.951 20.8605 17.1427 20.8605 22.3354 20.8647C22.47 20.8647 22.6047 20.92 22.7393 20.9503L22.7028 20.9492L22.6662 20.9513C22.4972 20.9471 22.3281 20.9388 22.159 20.9388C17.436 20.9378 12.713 20.9378 7.98999 20.9388C7.46916 20.9388 6.94937 20.9471 6.42853 20.9513Z" fill="#6EAFDF"/>
<path d="M22.6794 15.458C21.8215 15.4622 20.9645 15.4695 20.1066 15.4695C15.7134 15.4706 11.3213 15.4706 6.9281 15.4695C6.75901 15.4695 6.59096 15.4622 6.42188 15.458C6.57426 15.4361 6.72665 15.3944 6.878 15.3944C11.9924 15.3912 17.1079 15.3912 22.2223 15.3944C22.3757 15.3944 22.527 15.4361 22.6794 15.458Z" fill="#5294D0"/>
<path d="M6.36328 26.4143C6.49793 26.3862 6.63153 26.334 6.76617 26.3329C10.4256 26.3287 14.0839 26.3287 17.7434 26.3319C17.8811 26.3319 18.0189 26.3736 18.1556 26.3966L18.1306 26.4206C14.2322 26.4196 10.3337 26.4185 6.4353 26.4185C6.41129 26.4164 6.38729 26.4154 6.36328 26.4143Z" fill="#91C5EB"/>
<path d="M18.1556 28.6062C18.0189 28.6292 17.8811 28.6709 17.7444 28.6709C14.0839 28.6741 10.4245 28.6751 6.76408 28.6699C6.63048 28.6699 6.49688 28.6167 6.36328 28.5885C6.38729 28.5874 6.41129 28.5853 6.43426 28.5843C8.44871 28.5885 10.4632 28.5947 12.4776 28.5947C14.3616 28.5947 16.2466 28.5864 18.1306 28.5822L18.1556 28.6062Z" fill="#91C5EB"/>
<path d="M6.42856 15.4758C6.4296 16.2241 6.43064 16.9725 6.43169 17.7198C6.40246 17.629 6.35027 17.5393 6.34923 17.4485C6.34192 16.8817 6.34192 16.3149 6.34923 15.7492C6.34923 15.6574 6.40037 15.5666 6.42856 15.4758Z" fill="#B9DCF4"/>
<path d="M22.668 17.7198C22.669 16.9715 22.6701 16.2231 22.6711 15.4758C22.6993 15.5927 22.7494 15.7096 22.7515 15.8265C22.7598 16.341 22.7609 16.8566 22.7515 17.3712C22.7483 17.4881 22.6962 17.604 22.668 17.7198Z" fill="#B9DCF4"/>
<path d="M6.43426 28.5843C6.41025 28.5864 6.38624 28.5874 6.36328 28.5885C6.36328 27.8631 6.36328 27.1387 6.36328 26.4133C6.38729 26.4143 6.41129 26.4164 6.43426 26.4175C6.43426 27.1408 6.43426 27.862 6.43426 28.5843Z" fill="#BADCF4"/>
<path d="M18.154 26.3966C18.154 27.1335 18.154 27.8693 18.154 28.6062L18.1289 28.5822C18.1289 27.862 18.1289 27.1418 18.1289 26.4216L18.154 26.3966Z" fill="#91C5EB"/>
</svg>
