<svg width="24" height="24" viewBox="0 0 24 24" fill="none" xmlns="http://www.w3.org/2000/svg">
<path d="M16.8 12C16.8 14.651 14.6531 16.8 12 16.8C9.34688 16.8 7.2 14.651 7.2 12C7.2 9.349 9.34688 7.2 12 7.2C14.6531 7.2 16.8 9.349 16.8 12Z" fill="#121132"/>
<path fill-rule="evenodd" clip-rule="evenodd" d="M13.2 0V2.48276C15.3141 2.752 17.2734 3.71492 18.7781 5.22026C20.2828 6.72561 21.2484 8.68821 21.5156 10.8H24V13.2H21.5156C21.2484 15.3119 20.2875 17.2746 18.7781 18.78C17.2734 20.2854 15.3141 21.2481 13.2 21.5172V24H10.8V21.5172C8.68594 21.248 6.72656 20.2851 5.22188 18.7797C3.71719 17.2744 2.75156 15.3118 2.48438 13.2H0V10.8H2.48438C2.75156 8.68835 3.71719 6.72598 5.22188 5.2207C6.72656 3.71543 8.69063 2.75244 10.8 2.48276V0H13.2ZM4.8 12C4.8 15.9708 8.02969 19.2 12 19.2C15.9703 19.2 19.2 15.9708 19.2 12C19.2 8.02917 15.9703 4.8 12 4.8C8.02969 4.8 4.8 8.02917 4.8 12Z" fill="#121132"/>
</svg>
