<svg width="340" height="110" viewBox="0 0 340 110" fill="none" xmlns="http://www.w3.org/2000/svg">
<path d="M323.672 75.1178L319.517 90.9984H326.25L330.267 75.1178H323.672Z" fill="url(#paint0_linear_671_8217)"/>
<path d="M229.114 92.759C232.857 92.1963 235.736 90.8483 236.207 83.2254C236.626 76.5447 231.103 75.38 225.594 75.1248H203.654L202.293 81.9298H225.051C227.55 81.9298 229.036 82.7935 229.036 84.5079C229.036 86.6214 226.693 87.9104 223.991 87.9104H201.233L198.891 101.278H206.985L208.195 94.3555H220.627L231.751 107.782H242.58C242.58 107.789 229.854 93.4199 229.114 92.759Z" fill="url(#paint1_linear_671_8217)"/>
<path d="M290.876 93.4325C289.371 97.8951 289.535 101.278 279.563 101.278H263.728L277.744 85.3646H282.527C283.855 85.3646 285.105 84.8543 285.105 83.2904C285.105 82.2762 284.13 81.9229 283.109 81.9229H259.966L266.692 75.1178H284.012C289.64 75.1178 294.475 75.3338 293.167 80.9021C291.825 86.6013 290.117 87.1313 288.429 87.8249C290.137 89.0224 291.714 90.9592 290.876 93.4325ZM278.889 90.9592L275.644 94.5645L280.78 94.5514C282.776 94.5514 283.672 93.7662 283.672 92.4379C283.672 91.463 282.966 90.9526 281.402 90.9526H278.889V90.9592Z" fill="url(#paint2_linear_671_8217)"/>
<path d="M339.906 94.5449L338.23 101.54L315.846 101.278H292.813L299.102 75.1244H319.229L317.449 81.9229H305.187L304.461 85.5217H316.507L315.08 90.9657L303.584 90.9984L302.956 94.5514H316.984L316.991 94.5449H339.906Z" fill="url(#paint3_linear_671_8217)"/>
<path d="M237.986 96.5667L242.325 101.278H257.819L264.231 94.5514H246.12L246.741 90.9984H266.829L272.456 85.0571H247.801L248.344 81.9294H254.77L261.222 75.1244H241.467L237.986 96.5667Z" fill="url(#paint4_linear_671_8217)"/>
<path d="M120.626 55.0684C120.626 58.0521 120.626 60.9115 120.626 63.9476C105.001 63.9476 89.5062 63.9476 73.835 63.9476C73.835 60.9639 73.835 58.1045 73.835 55.0684C89.4473 55.0684 104.942 55.0684 120.626 55.0684Z" fill="white"/>
<path d="M196.803 54.8982C196.803 58.1175 196.803 60.905 196.803 63.9084C195.946 63.9803 195.187 64.1112 194.428 64.1112C187.8 64.1243 181.165 64.157 174.536 64.1112C158.263 63.9869 144.751 51.7182 143.41 35.8965C142.016 19.4532 153.127 4.60647 169.406 2.16583C176.08 1.1647 182.984 1.74705 189.782 1.62928C192.053 1.59002 194.323 1.62273 196.757 1.62273C196.757 4.84203 196.757 7.70145 196.757 10.9142C194.101 10.9142 191.575 10.875 189.036 10.9273C182.774 11.0582 176.414 10.5936 170.27 11.5424C159.526 13.1978 151.667 23.8045 152.564 34.2869C153.539 45.7703 162.706 54.63 174.013 54.8721C180.556 55.0095 187.093 54.8982 193.636 54.9048C194.598 54.8982 195.56 54.8982 196.803 54.8982Z" fill="white"/>
<path d="M19.2572 28.339C23.2224 28.339 26.4025 28.3652 29.5825 28.3325C34.9873 28.2736 38.9656 24.5504 38.9591 19.6037C38.9591 14.5915 35.0658 10.875 29.661 10.8488C20.8996 10.8095 12.1512 10.8357 3.38971 10.8357C2.42784 10.8357 1.46598 10.8357 0.268555 10.8357C0.268555 7.78652 0.268555 4.9271 0.268555 1.83212C0.824735 1.7536 1.49215 1.57693 2.15957 1.57693C11.451 1.56385 20.736 1.41335 30.0209 1.60965C43.7291 1.89755 52.1765 15.4422 46.2156 27.4949C43.3496 33.2923 38.4225 36.4789 31.6698 37.5716C37.8402 46.4181 43.8469 55.0487 50.1874 64.1374C46.3792 64.1374 43.1402 64.2094 39.9078 64.0785C39.2731 64.0523 38.501 63.3914 38.0953 62.8156C32.1213 54.3813 25.9641 46.0583 20.4219 37.336C19.0151 35.1113 19.6236 31.6107 19.2572 28.339Z" fill="white"/>
<path d="M291.916 10.8815C291.916 7.68837 291.916 4.82895 291.916 1.87792C292.381 1.77977 292.714 1.66199 293.048 1.66199C303.04 1.66854 313.031 1.49841 323.016 1.77323C329.978 1.96299 335.089 5.68612 338.033 11.9088C341.037 18.2427 340.395 24.5177 336.26 30.2038C332.903 34.8169 328.264 37.3491 322.486 37.48C318.874 37.5651 315.249 37.4931 311.435 37.4931C311.435 34.4635 311.435 31.5976 311.435 28.3717C315.001 28.3717 318.508 28.4699 322.009 28.3521C326.569 28.1951 330.188 24.8318 330.652 20.5198C331.091 16.4302 328.375 12.3537 324.318 11.2283C323.232 10.9273 322.054 10.9077 320.909 10.9077C312.246 10.8815 303.576 10.8946 294.913 10.8946C293.971 10.8815 293.028 10.8815 291.916 10.8815Z" fill="white"/>
<path d="M213.338 63.6597C223.29 42.2828 233 21.4358 242.979 0C244.765 3.854 246.395 7.2696 247.873 10.7506C248.083 11.2348 247.559 12.0789 247.271 12.7071C239.845 28.712 232.366 44.6907 225.005 60.7218C223.977 62.953 222.741 63.9869 220.235 63.7055C218.147 63.47 216.021 63.6597 213.338 63.6597Z" fill="white"/>
<path d="M120.58 37.4276C105.02 37.4276 89.5781 37.4276 73.9004 37.4276C73.9004 34.529 73.9004 31.663 73.9004 28.5811C89.3229 28.5811 104.844 28.5811 120.58 28.5811C120.58 31.4078 120.58 34.2738 120.58 37.4276Z" fill="white"/>
<path d="M120.665 1.81904C120.665 4.95328 120.665 7.76035 120.665 10.7441C105.014 10.7441 89.4996 10.7441 73.835 10.7441C73.835 7.74726 73.835 4.8813 73.835 1.81904C89.4473 1.81904 104.955 1.81904 120.665 1.81904Z" fill="white"/>
<path d="M9.01033 63.9738C6.02659 63.9738 3.2326 63.9738 0.255398 63.9738C0.183422 63.241 0.046013 62.567 0.046013 61.8996C0.0329264 51.5677 0.085273 41.2424 0.00021014 30.9105C-0.0128764 28.941 0.582563 28.2016 2.54555 28.3063C4.63941 28.4241 6.74635 28.3325 9.01033 28.3325C9.01033 40.2674 9.01033 51.9603 9.01033 63.9738Z" fill="white"/>
<path d="M300.75 64C297.766 64 294.972 64 291.962 64C291.962 52.1762 291.962 40.4768 291.962 28.5746C294.795 28.5746 297.674 28.5746 300.75 28.5746C300.75 40.2609 300.75 51.9603 300.75 64Z" fill="white"/>
<path d="M250.89 37.5193C253.652 37.5193 256.537 37.48 259.416 37.5585C259.894 37.5716 260.574 38.0754 260.784 38.5269C264.657 46.7257 268.479 54.9506 272.516 63.6205C269.133 63.6205 266.175 63.6597 263.211 63.5747C262.734 63.5616 262.047 63.0512 261.837 62.5932C258.081 54.4271 254.378 46.2284 250.674 38.0296C250.648 37.9838 250.74 37.8791 250.89 37.5193Z" fill="white"/>
<path d="M37.0873 101.512V110H27.6827C22.8275 110 20.31 107.788 20.1482 103.365V99.6603C20.0762 97.7901 20.8495 95.9919 22.2341 94.7332C23.5827 93.6003 25.4349 93.0249 27.8265 93.0249H34.8036V96.6573H27.9344C27.0893 96.6033 26.2621 96.8551 25.6147 97.3945C25.0393 98.0239 24.7516 98.8511 24.7875 99.6963C24.7516 100.146 24.7336 100.739 24.7336 101.494C24.7336 102.232 24.7336 102.843 24.7875 103.311C24.7336 104.156 25.0213 104.983 25.5608 105.63C26.1902 106.17 26.9993 106.422 27.8085 106.35H32.5019V101.512H37.0873Z" fill="white"/>
<path d="M17.5593 101.512V103.347C17.3974 107.77 14.8799 109.982 10.0248 109.982H2.93981V106.35H9.88091C10.6901 106.422 11.4993 106.152 12.1287 105.63C12.6681 104.983 12.9558 104.174 12.9019 103.329C12.9379 102.861 12.9558 102.25 12.9558 101.512C12.9558 100.775 12.9558 100.164 12.9019 99.7143C12.9379 98.8691 12.6322 98.0419 12.0567 97.4126C11.4094 96.8731 10.5822 96.6034 9.73705 96.6753H5.16959V101.53H0.620117V93.0069H9.88091C12.2725 93.0069 14.1247 93.5824 15.4374 94.7152C16.7681 95.8481 17.4514 97.4845 17.5233 99.6244C17.5593 100.11 17.5593 100.757 17.5593 101.512Z" fill="white"/>
<path d="M44.1899 106.817C44.118 106.745 44.082 106.655 44.082 106.547V96.4775C44.082 96.3696 44.118 96.2797 44.1899 96.1898C44.2618 96.1178 44.3518 96.0819 44.4417 96.0819H48.5236C49.8003 95.992 51.0771 96.3876 52.102 97.1788C53.0012 97.97 53.5047 99.1208 53.4687 100.326V102.699C53.3608 105.54 51.7604 106.943 48.6495 106.943H44.4597C44.3338 106.925 44.2439 106.889 44.1899 106.817ZM48.5416 104.623C49.0631 104.659 49.5846 104.497 49.9802 104.156C50.3218 103.742 50.5016 103.221 50.4837 102.681C50.4837 102.376 50.5196 101.998 50.5196 101.512C50.5196 101.027 50.5196 100.649 50.4837 100.362C50.5016 99.8221 50.3218 99.2827 49.9442 98.8871C49.5306 98.5454 48.9911 98.3836 48.4697 98.4195H47.0131V104.623H48.5416Z" fill="white"/>
<path d="M56.022 106.817C55.95 106.745 55.9141 106.655 55.9141 106.547V96.4775C55.9141 96.3696 55.95 96.2617 56.022 96.1897C56.0939 96.1178 56.2018 96.0639 56.2917 96.0819H63.5924C63.8082 96.0819 63.988 96.2437 63.988 96.4595C63.988 96.4595 63.988 96.4595 63.988 96.4775V98.0239C63.988 98.1318 63.9521 98.2217 63.8801 98.2937C63.8082 98.3656 63.7003 98.4015 63.5924 98.4015H58.6833V100.38H63.2508C63.4665 100.38 63.6464 100.541 63.6464 100.757C63.6464 100.757 63.6464 100.757 63.6464 100.775V102.178C63.6464 102.286 63.6104 102.394 63.5385 102.466C63.4665 102.537 63.3587 102.591 63.2508 102.573H58.6833V104.623H63.7003C63.9161 104.623 64.0959 104.803 64.1139 105.019C64.1139 105.019 64.1139 105.019 64.1139 105.037V106.565C64.1139 106.673 64.0779 106.763 64.006 106.835C63.9341 106.907 63.8262 106.943 63.7183 106.943H56.2737C56.1838 106.943 56.0939 106.889 56.022 106.817Z" fill="white"/>
<path d="M66.686 106.817C66.6141 106.745 66.5781 106.655 66.5781 106.547V96.4775C66.5781 96.3696 66.6141 96.2617 66.686 96.1897C66.7579 96.1178 66.8658 96.0639 66.9558 96.0819H74.2745C74.3824 96.0819 74.4903 96.1178 74.5622 96.1897C74.6341 96.2617 74.6881 96.3696 74.6701 96.4775V98.0239C74.6701 98.1318 74.6341 98.2217 74.5622 98.2937C74.4903 98.3656 74.3824 98.4015 74.2745 98.4015H69.3833V100.38H73.9328C74.0407 100.38 74.1486 100.416 74.2205 100.487C74.2925 100.559 74.3464 100.667 74.3284 100.775V102.178C74.3284 102.394 74.1486 102.573 73.9328 102.591C73.9328 102.591 73.9328 102.591 73.9148 102.591H69.3654V104.623H74.3824C74.4903 104.623 74.5981 104.659 74.6701 104.731C74.742 104.803 74.796 104.911 74.778 105.019V106.547C74.778 106.655 74.742 106.745 74.6701 106.817C74.5981 106.889 74.4903 106.925 74.3824 106.925H66.9737C66.8658 106.943 66.7579 106.907 66.686 106.817Z" fill="white"/>
<path d="M77.3491 106.817C77.2772 106.745 77.2412 106.655 77.2412 106.547V96.4774C77.2412 96.3695 77.2772 96.2796 77.3491 96.1897C77.421 96.1178 77.5289 96.0638 77.6368 96.0818H82.0245C83.1573 96.0099 84.2722 96.3336 85.1893 96.9989C85.9805 97.6643 86.3941 98.6533 86.3222 99.6782C86.3941 100.703 85.9625 101.692 85.1713 102.322C84.2363 102.951 83.1214 103.257 82.0065 103.203H80.2262V106.565C80.2262 106.673 80.1903 106.763 80.1183 106.835C80.0464 106.907 79.9385 106.961 79.8306 106.943H77.6009C77.5109 106.943 77.421 106.889 77.3491 106.817ZM81.9345 100.991C82.2942 101.009 82.6538 100.883 82.9415 100.649C83.1933 100.38 83.3371 100.038 83.3012 99.6603C83.3192 99.3006 83.1933 98.959 82.9595 98.6892C82.6898 98.4195 82.3122 98.2936 81.9345 98.3296H80.1903V100.991H81.9345Z" fill="white"/>
<path d="M89.6493 105.99C88.7682 105.199 88.2647 104.048 88.3006 102.861V100.02C88.2827 98.8511 88.7862 97.7362 89.6673 96.981C90.6743 96.2257 91.915 95.8301 93.1738 95.9021C94.0549 95.8841 94.936 96.0459 95.7452 96.3876C96.4106 96.6573 96.986 97.0709 97.4356 97.6284C97.7952 98.0599 98.011 98.5994 98.0469 99.1748C98.0469 99.2647 98.011 99.3546 97.9391 99.4266C97.8851 99.4985 97.7952 99.5165 97.7053 99.5165H95.3316C95.2417 99.5165 95.1698 99.4985 95.0979 99.4625C95.026 99.4266 94.972 99.3726 94.936 99.3007C94.8102 98.995 94.5944 98.7432 94.3426 98.5454C94.001 98.3297 93.5874 98.2218 93.1918 98.2397C91.987 98.2397 91.3756 98.8871 91.3216 100.11V102.789C91.3756 104.102 92.005 104.767 93.2098 104.767C93.7312 104.803 94.2347 104.641 94.6483 104.318C95.026 103.958 95.2058 103.455 95.1698 102.951V102.699H93.7852C93.6773 102.699 93.5694 102.663 93.4975 102.591C93.4255 102.519 93.3716 102.412 93.3896 102.304V101.081C93.3896 100.973 93.4255 100.865 93.4975 100.793C93.5694 100.721 93.6773 100.667 93.7852 100.685H97.7233C97.8312 100.685 97.939 100.721 98.011 100.793C98.0829 100.865 98.1369 100.973 98.1189 101.081V102.879C98.1369 103.688 97.9031 104.48 97.4715 105.145C97.0579 105.792 96.4465 106.296 95.7452 106.601C94.936 106.943 94.0549 107.123 93.1738 107.105C91.915 107.177 90.6563 106.781 89.6493 105.99Z" fill="white"/>
<path d="M100.672 106.817C100.6 106.745 100.564 106.655 100.564 106.547V96.4774C100.564 96.3695 100.6 96.2796 100.672 96.1897C100.744 96.1178 100.852 96.0638 100.942 96.0818H105.204C106.355 96.0099 107.488 96.3336 108.423 97.0169C109.196 97.6642 109.627 98.6353 109.573 99.6423C109.591 100.29 109.412 100.937 109.07 101.494C108.728 102.016 108.243 102.447 107.667 102.699L109.753 106.475C109.789 106.529 109.789 106.583 109.807 106.655C109.807 106.835 109.663 106.979 109.484 106.979H107.29C107.002 106.997 106.75 106.835 106.642 106.565L104.934 103.203H103.442V106.565C103.442 106.673 103.406 106.763 103.334 106.835C103.262 106.907 103.154 106.943 103.046 106.943H100.924C100.834 106.943 100.726 106.889 100.672 106.817ZM105.168 100.883C105.546 100.919 105.905 100.793 106.193 100.541C106.427 100.29 106.553 99.9659 106.535 99.6243C106.553 99.2826 106.427 98.941 106.193 98.6712C105.923 98.4195 105.546 98.2936 105.168 98.3116H103.442V100.883H105.168Z" fill="white"/>
<path d="M111.623 106.835C111.569 106.781 111.533 106.691 111.533 106.619C111.533 106.565 111.533 106.529 111.533 106.475L115.148 96.5314C115.22 96.2436 115.489 96.0458 115.795 96.0818H118.223C118.528 96.0458 118.798 96.2436 118.87 96.5314L122.484 106.475C122.484 106.529 122.484 106.565 122.484 106.619C122.484 106.709 122.448 106.781 122.394 106.835C122.34 106.907 122.251 106.943 122.161 106.943H120.147C119.913 106.961 119.697 106.817 119.625 106.601L119.068 105.109H115.004L114.446 106.601C114.356 106.817 114.141 106.961 113.925 106.943H111.911C111.785 106.943 111.695 106.907 111.623 106.835ZM115.615 102.771H118.366L116.982 98.8331L115.615 102.771Z" fill="white"/>
<path d="M124.57 106.835C124.498 106.763 124.444 106.655 124.462 106.565V96.4955C124.462 96.3876 124.498 96.2797 124.57 96.2077C124.642 96.1358 124.75 96.0819 124.858 96.0998H126.602C126.836 96.0819 127.052 96.2257 127.16 96.4415L129.839 101.225L132.518 96.4415C132.626 96.2257 132.842 96.0819 133.076 96.0998H134.82C135.036 96.0998 135.216 96.2617 135.216 96.4775C135.216 96.4775 135.216 96.4775 135.216 96.4955V106.565C135.216 106.673 135.18 106.763 135.108 106.835C135.036 106.907 134.928 106.943 134.82 106.943H132.842C132.626 106.943 132.465 106.763 132.447 106.547V100.901L130.738 103.976C130.63 104.192 130.433 104.318 130.199 104.336H129.354C129.12 104.318 128.904 104.192 128.814 103.976L127.16 100.901V106.547C127.16 106.655 127.124 106.745 127.052 106.817C126.98 106.889 126.872 106.925 126.764 106.925H124.822C124.75 106.943 124.642 106.907 124.57 106.835Z" fill="white"/>
<path d="M0.55063 80.91V76.5713H1.91726C2.24012 76.5713 2.52759 76.6133 2.77969 76.6973C3.03178 76.7814 3.23081 76.9207 3.37676 77.1153C3.52271 77.3099 3.59568 77.5753 3.59568 77.9114C3.59568 78.2298 3.52271 78.493 3.37676 78.7008C3.23081 78.9087 3.034 79.0635 2.78632 79.1652C2.53865 79.267 2.25781 79.3178 1.94379 79.3178H1.32019V80.91H0.55063ZM1.32019 78.7008H1.88408C2.52096 78.7008 2.8394 78.4377 2.8394 77.9114C2.8394 77.6372 2.75536 77.4492 2.5873 77.3475C2.42366 77.2413 2.18041 77.1883 1.85755 77.1883H1.32019V78.7008ZM5.52999 80.9896C5.2602 80.9896 5.00811 80.9233 4.7737 80.7906C4.5393 80.6535 4.34912 80.4589 4.20317 80.2068C4.05722 79.9503 3.98424 79.6429 3.98424 79.2846C3.98424 78.922 4.05722 78.6146 4.20317 78.3625C4.34912 78.106 4.5393 77.9114 4.7737 77.7787C5.00811 77.6416 5.2602 77.5731 5.52999 77.5731C5.8042 77.5731 6.05851 77.6416 6.29291 77.7787C6.52732 77.9114 6.71749 78.106 6.86344 78.3625C7.0094 78.6146 7.08237 78.922 7.08237 79.2846C7.08237 79.6429 7.0094 79.9503 6.86344 80.2068C6.71749 80.4589 6.52732 80.6535 6.29291 80.7906C6.05851 80.9233 5.8042 80.9896 5.52999 80.9896ZM5.52999 80.366C5.76882 80.366 5.95678 80.2665 6.09389 80.0675C6.23099 79.8684 6.29955 79.6075 6.29955 79.2846C6.29955 78.9574 6.23099 78.6942 6.09389 78.4952C5.95678 78.2962 5.76882 78.1967 5.52999 78.1967C5.29116 78.1967 5.1032 78.2962 4.96609 78.4952C4.83341 78.6942 4.76707 78.9574 4.76707 79.2846C4.76707 79.6075 4.83341 79.8684 4.96609 80.0675C5.1032 80.2665 5.29116 80.366 5.52999 80.366ZM8.33601 80.91L7.47357 77.6527H8.24313L8.63454 79.3444C8.66992 79.4992 8.69867 79.6539 8.72079 79.8087C8.74732 79.9635 8.77607 80.1205 8.80703 80.2798H8.83357C8.86452 80.1205 8.89548 79.9635 8.92644 79.8087C8.96183 79.6495 8.99942 79.4947 9.03922 79.3444L9.46381 77.6527H10.1604L10.5916 79.3444C10.6314 79.4992 10.669 79.6539 10.7044 79.8087C10.7398 79.9635 10.7751 80.1205 10.8105 80.2798H10.8371C10.868 80.1205 10.8968 79.9635 10.9233 79.8087C10.9498 79.6539 10.9786 79.4992 11.0096 79.3444L11.401 77.6527H12.1174L11.2882 80.91H10.3793L10.0012 79.3908C9.96579 79.236 9.93262 79.0834 9.90166 78.933C9.8707 78.7782 9.83753 78.6146 9.80214 78.4421H9.77561C9.74465 78.6146 9.71369 78.7782 9.68273 78.933C9.65177 79.0878 9.6186 79.2426 9.58322 79.3974L9.21171 80.91H8.33601ZM14.1156 80.9896C13.8148 80.9896 13.5428 80.9233 13.2996 80.7906C13.0563 80.6535 12.8639 80.4589 12.7224 80.2068C12.5809 79.9503 12.5101 79.6429 12.5101 79.2846C12.5101 78.9308 12.5809 78.6257 12.7224 78.3691C12.8683 78.1126 13.0563 77.9158 13.2863 77.7787C13.5163 77.6416 13.7573 77.5731 14.0094 77.5731C14.3057 77.5731 14.5534 77.6394 14.7524 77.7721C14.9515 77.9003 15.1018 78.0817 15.2035 78.3161C15.3053 78.5461 15.3561 78.8136 15.3561 79.1188C15.3561 79.278 15.3451 79.4019 15.323 79.4903H13.2531C13.2885 79.7778 13.3924 80.0011 13.5649 80.1604C13.7374 80.3196 13.9541 80.3992 14.2151 80.3992C14.3566 80.3992 14.4871 80.3793 14.6065 80.3395C14.7303 80.2952 14.8519 80.2355 14.9714 80.1604L15.2301 80.638C15.0753 80.7397 14.9028 80.8238 14.7126 80.8901C14.5224 80.9564 14.3234 80.9896 14.1156 80.9896ZM13.2465 78.9728H14.6927C14.6927 78.7207 14.6374 78.5239 14.5269 78.3824C14.4163 78.2365 14.2504 78.1635 14.0293 78.1635C13.8391 78.1635 13.6689 78.2342 13.5185 78.3758C13.3725 78.5129 13.2819 78.7119 13.2465 78.9728ZM16.0848 80.91V77.6527H16.715L16.7681 78.2298H16.7946C16.9096 78.0175 17.049 77.8561 17.2126 77.7455C17.3762 77.6305 17.5443 77.5731 17.7168 77.5731C17.8716 77.5731 17.9954 77.5952 18.0883 77.6394L17.9556 78.3028C17.8981 78.2851 17.845 78.2718 17.7964 78.263C17.7477 78.2542 17.688 78.2497 17.6173 78.2497C17.489 78.2497 17.3541 78.3006 17.2126 78.4023C17.0711 78.4996 16.9494 78.6721 16.8477 78.9198V80.91H16.0848ZM19.888 80.9896C19.5873 80.9896 19.3153 80.9233 19.072 80.7906C18.8288 80.6535 18.6364 80.4589 18.4948 80.2068C18.3533 79.9503 18.2825 79.6429 18.2825 79.2846C18.2825 78.9308 18.3533 78.6257 18.4948 78.3691C18.6408 78.1126 18.8288 77.9158 19.0587 77.7787C19.2887 77.6416 19.5298 77.5731 19.7819 77.5731C20.0782 77.5731 20.3259 77.6394 20.5249 77.7721C20.7239 77.9003 20.8743 78.0817 20.976 78.3161C21.0777 78.5461 21.1286 78.8136 21.1286 79.1188C21.1286 79.278 21.1175 79.4019 21.0954 79.4903H19.0256C19.0609 79.7778 19.1649 80.0011 19.3374 80.1604C19.5099 80.3196 19.7266 80.3992 19.9875 80.3992C20.129 80.3992 20.2595 80.3793 20.3789 80.3395C20.5028 80.2952 20.6244 80.2355 20.7438 80.1604L21.0025 80.638C20.8477 80.7397 20.6752 80.8238 20.4851 80.8901C20.2949 80.9564 20.0959 80.9896 19.888 80.9896ZM19.0189 78.9728H20.4652C20.4652 78.7207 20.4099 78.5239 20.2993 78.3824C20.1887 78.2365 20.0229 78.1635 19.8018 78.1635C19.6116 78.1635 19.4413 78.2342 19.2909 78.3758C19.145 78.5129 19.0543 78.7119 19.0189 78.9728ZM22.9983 80.9896C22.5914 80.9896 22.2663 80.8392 22.0231 80.5385C21.7798 80.2377 21.6582 79.8198 21.6582 79.2846C21.6582 78.9308 21.7223 78.6257 21.8506 78.3691C21.9833 78.1126 22.1558 77.9158 22.3681 77.7787C22.5804 77.6416 22.8037 77.5731 23.0381 77.5731C23.2239 77.5731 23.3809 77.6062 23.5091 77.6726C23.6418 77.7345 23.7701 77.8207 23.8939 77.9313L23.8674 77.4072V76.2263H24.6303V80.91H24.0001L23.947 80.5584H23.9204C23.801 80.6778 23.6617 80.7795 23.5025 80.8636C23.3433 80.9476 23.1752 80.9896 22.9983 80.9896ZM23.1841 80.3594C23.4273 80.3594 23.6551 80.2377 23.8674 79.9945V78.4753C23.7568 78.3736 23.6462 78.3028 23.5357 78.263C23.4251 78.2232 23.3145 78.2033 23.204 78.2033C22.9961 78.2033 22.817 78.2984 22.6666 78.4886C22.5207 78.6743 22.4477 78.9375 22.4477 79.278C22.4477 79.6274 22.5118 79.895 22.6401 80.0807C22.7683 80.2665 22.9497 80.3594 23.1841 80.3594ZM28.5089 80.9896C28.1993 80.9896 27.903 80.8481 27.6199 80.565H27.6L27.5337 80.91H26.93V76.2263H27.6929V77.4337L27.673 77.9777C27.8101 77.8583 27.9605 77.761 28.1241 77.6858C28.2878 77.6106 28.4514 77.5731 28.6151 77.5731C29.022 77.5731 29.3382 77.7234 29.5637 78.0242C29.7893 78.3249 29.9021 78.7252 29.9021 79.2249C29.9021 79.5965 29.8357 79.9149 29.7031 80.1803C29.5704 80.4412 29.3979 80.6424 29.1856 80.784C28.9777 80.9211 28.7522 80.9896 28.5089 80.9896ZM28.3497 80.3594C28.5664 80.3594 28.7477 80.2643 28.8937 80.0741C29.0396 79.8839 29.1126 79.6053 29.1126 79.2382C29.1126 78.9109 29.0573 78.6566 28.9468 78.4753C28.8362 78.294 28.6571 78.2033 28.4094 78.2033C28.1794 78.2033 27.9406 78.3249 27.6929 78.5682V80.0874C27.8079 80.1847 27.9207 80.2554 28.0313 80.2997C28.1462 80.3395 28.2524 80.3594 28.3497 80.3594ZM30.8482 82.2501C30.7598 82.2501 30.6824 82.2435 30.616 82.2302C30.5497 82.2169 30.4855 82.2014 30.4236 82.1838L30.5629 81.5867C30.5939 81.5955 30.6293 81.6044 30.6691 81.6132C30.7133 81.6265 30.7553 81.6331 30.7951 81.6331C30.9676 81.6331 31.1047 81.58 31.2065 81.4739C31.3126 81.3722 31.3922 81.2395 31.4453 81.0759L31.505 80.8702L30.2246 77.6527H31.0008L31.5647 79.2515C31.6133 79.393 31.6598 79.5434 31.704 79.7026C31.7527 79.8574 31.8013 80.0122 31.85 80.167H31.8765C31.9163 80.0166 31.9561 79.864 31.9959 79.7092C32.0401 79.55 32.0822 79.3974 32.122 79.2515L32.6129 77.6527H33.3493L32.1684 81.056C32.0313 81.423 31.8654 81.7127 31.6708 81.925C31.4762 82.1417 31.202 82.2501 30.8482 82.2501Z" fill="white"/>
<defs>
<linearGradient id="paint0_linear_671_8217" x1="324.891" y1="74.8867" x2="324.891" y2="106.914" gradientUnits="userSpaceOnUse">
<stop offset="6.92613e-08" stop-color="#E93D46"/>
<stop offset="0.9749" stop-color="#AB1314"/>
</linearGradient>
<linearGradient id="paint1_linear_671_8217" x1="220.735" y1="74.8871" x2="220.735" y2="106.915" gradientUnits="userSpaceOnUse">
<stop offset="6.92613e-08" stop-color="#E93D46"/>
<stop offset="0.9749" stop-color="#AB1314"/>
</linearGradient>
<linearGradient id="paint2_linear_671_8217" x1="276.684" y1="74.8867" x2="276.684" y2="106.914" gradientUnits="userSpaceOnUse">
<stop offset="6.92613e-08" stop-color="#E93D46"/>
<stop offset="0.9749" stop-color="#AB1314"/>
</linearGradient>
<linearGradient id="paint3_linear_671_8217" x1="316.36" y1="74.8867" x2="316.36" y2="106.914" gradientUnits="userSpaceOnUse">
<stop offset="6.92613e-08" stop-color="#E93D46"/>
<stop offset="0.9749" stop-color="#AB1314"/>
</linearGradient>
<linearGradient id="paint4_linear_671_8217" x1="255.223" y1="74.8867" x2="255.223" y2="106.914" gradientUnits="userSpaceOnUse">
<stop offset="6.92613e-08" stop-color="#E93D46"/>
<stop offset="0.9749" stop-color="#AB1314"/>
</linearGradient>
</defs>
</svg>
