<svg width="20" height="20" viewBox="0 0 20 20" fill="none" xmlns="http://www.w3.org/2000/svg">
<path d="M4.21639 12.6432C4.21639 13.8057 3.27767 14.7452 2.11615 14.7452C0.954641 14.7452 0.0159226 13.8057 0.0159226 12.6432C0.0159226 11.4809 0.954641 10.5414 2.11623 10.5414H4.21631L4.21639 12.6432ZM5.26654 12.6432C5.26654 11.4809 6.20526 10.5414 7.36677 10.5414C8.52829 10.5414 9.46701 11.4809 9.46701 12.6433V17.898C9.46701 19.0605 8.52829 20 7.3667 20C6.20534 20 5.26654 19.0605 5.26654 17.898V12.6432Z" fill="#E01E5A"/>
<path d="M7.36675 4.20381C6.20524 4.20381 5.26644 3.26434 5.26644 2.1019C5.26644 0.939465 6.20531 0 7.36675 0C8.52819 0 9.46698 0.939465 9.46698 2.1019V4.20388L7.36675 4.20381ZM7.36675 5.27071C8.52826 5.27071 9.46698 6.21017 9.46698 7.37261C9.46698 8.53505 8.52826 9.47451 7.36667 9.47451H2.10031C0.938718 9.47451 0 8.53505 0 7.37253C0 6.21025 0.938718 5.27071 2.10023 5.27071H7.36675Z" fill="#36C5F0"/>
<path d="M15.7836 7.37261C15.7836 6.21017 16.7224 5.27063 17.8838 5.27063C19.0453 5.27063 19.9841 6.21017 19.9841 7.37261C19.9841 8.53505 19.0453 9.47451 17.8838 9.47451H15.7836V7.37261ZM14.7335 7.37261C14.7335 8.53505 13.7947 9.47451 12.6332 9.47451C11.4717 9.47451 10.533 8.53505 10.533 7.37253V2.10198C10.533 0.939465 11.4717 0 12.6332 0C13.7946 0 14.7334 0.939465 14.7334 2.1019L14.7335 7.37261Z" fill="#2EB67D"/>
<path d="M12.6332 15.7962C13.7947 15.7962 14.7335 16.7357 14.7335 17.898C14.7335 19.0605 13.7947 20 12.6332 20C11.4717 20 10.533 19.0605 10.533 17.898V15.7962H12.6332ZM12.6332 14.7452C11.4717 14.7452 10.533 13.8057 10.533 12.6432C10.533 11.4809 11.4717 10.5414 12.6333 10.5414H17.8997C19.0612 10.5414 20 11.4809 20 12.6433C20 13.8057 19.0612 14.7452 17.8997 14.7452H12.6332Z" fill="#ECB22E"/>
</svg>
